solid OpenSCAD_Model
  facet normal 0.9969173337331279 0.07845909572784467 -2.0606257719040626e-20
    outer loop
      vertex 1.3 0 22.4
      vertex 1.2839948427736791 0.20336480455230013 0
      vertex 1.2839948427736791 0.20336480455230013 22.4
    endloop
  endfacet
  facet normal 0.9969173337331279 0.07845909572784467 -2.0606257719040626e-20
    outer loop
      vertex 1.2839948427736791 0.20336480455230013 0
      vertex 1.3 0 22.4
      vertex 1.3 0 0
    endloop
  endfacet
  facet normal 0.9723699203976763 0.23344536385590628 1.8243356005427278e-19
    outer loop
      vertex 1.2839948427736791 0.20336480455230013 22.4
      vertex 1.2363734711836996 0.40172209268743164 0
      vertex 1.2363734711836996 0.40172209268743164 22.4
    endloop
  endfacet
  facet normal 0.9723699203976763 0.23344536385590628 1.8243356005427278e-19
    outer loop
      vertex 1.2363734711836996 0.40172209268743164 0
      vertex 1.2839948427736791 0.20336480455230013 22.4
      vertex 1.2839948427736791 0.20336480455230013 0
    endloop
  endfacet
  facet normal 0.9238795325112871 0.38268343236508895 1.0940343286126335e-19
    outer loop
      vertex 1.2363734711836996 0.40172209268743164 22.4
      vertex 1.1583084814448783 0.5901876496614109 0
      vertex 1.1583084814448783 0.5901876496614109 22.4
    endloop
  endfacet
  facet normal 0.9238795325112871 0.38268343236508895 1.0940343286126335e-19
    outer loop
      vertex 1.1583084814448783 0.5901876496614109 0
      vertex 1.2363734711836996 0.40172209268743164 22.4
      vertex 1.2363734711836996 0.40172209268743164 0
    endloop
  endfacet
  facet normal 0.8526401643540923 0.5224985647159489 -1.1994624265799186e-19
    outer loop
      vertex 1.1583084814448783 0.5901876496614109 22.4
      vertex 1.0517220926874318 0.7641208279802151 0
      vertex 1.0517220926874318 0.7641208279802151 22.4
    endloop
  endfacet
  facet normal 0.8526401643540923 0.5224985647159489 -1.1994624265799186e-19
    outer loop
      vertex 1.0517220926874318 0.7641208279802151 0
      vertex 1.1583084814448783 0.5901876496614109 22.4
      vertex 1.1583084814448783 0.5901876496614109 0
    endloop
  endfacet
  facet normal 0.7604059656000309 0.6494480483301837 -2.4877130394714792e-20
    outer loop
      vertex 1.0517220926874318 0.7641208279802151 22.4
      vertex 0.9192388155425119 0.9192388155425119 0
      vertex 0.9192388155425119 0.9192388155425119 22.4
    endloop
  endfacet
  facet normal 0.7604059656000309 0.6494480483301837 -2.4877130394714792e-20
    outer loop
      vertex 0.9192388155425119 0.9192388155425119 0
      vertex 1.0517220926874318 0.7641208279802151 22.4
      vertex 1.0517220926874318 0.7641208279802151 0
    endloop
  endfacet
  facet normal 0.6494480483301837 0.7604059656000309 0
    outer loop
      vertex 0.9192388155425119 0.9192388155425119 0
      vertex 0.7641208279802151 1.0517220926874318 22.4
      vertex 0.9192388155425119 0.9192388155425119 22.4
    endloop
  endfacet
  facet normal 0.6494480483301837 0.7604059656000309 0
    outer loop
      vertex 0.7641208279802151 1.0517220926874318 22.4
      vertex 0.9192388155425119 0.9192388155425119 0
      vertex 0.7641208279802151 1.0517220926874318 0
    endloop
  endfacet
  facet normal 0.5224985647159489 0.8526401643540923 0
    outer loop
      vertex 0.7641208279802151 1.0517220926874318 0
      vertex 0.5901876496614109 1.1583084814448783 22.4
      vertex 0.7641208279802151 1.0517220926874318 22.4
    endloop
  endfacet
  facet normal 0.5224985647159489 0.8526401643540923 0
    outer loop
      vertex 0.5901876496614109 1.1583084814448783 22.4
      vertex 0.7641208279802151 1.0517220926874318 0
      vertex 0.5901876496614109 1.1583084814448783 0
    endloop
  endfacet
  facet normal 0.38268343236508895 0.9238795325112871 0
    outer loop
      vertex 0.5901876496614109 1.1583084814448783 0
      vertex 0.40172209268743164 1.2363734711836996 22.4
      vertex 0.5901876496614109 1.1583084814448783 22.4
    endloop
  endfacet
  facet normal 0.38268343236508895 0.9238795325112871 0
    outer loop
      vertex 0.40172209268743164 1.2363734711836996 22.4
      vertex 0.5901876496614109 1.1583084814448783 0
      vertex 0.40172209268743164 1.2363734711836996 0
    endloop
  endfacet
  facet normal 0.23344536385590628 0.9723699203976763 0
    outer loop
      vertex 0.40172209268743164 1.2363734711836996 0
      vertex 0.20336480455230013 1.2839948427736791 22.4
      vertex 0.40172209268743164 1.2363734711836996 22.4
    endloop
  endfacet
  facet normal 0.23344536385590628 0.9723699203976763 0
    outer loop
      vertex 0.20336480455230013 1.2839948427736791 22.4
      vertex 0.40172209268743164 1.2363734711836996 0
      vertex 0.20336480455230013 1.2839948427736791 0
    endloop
  endfacet
  facet normal 0.07845909572784467 0.9969173337331279 0
    outer loop
      vertex 0.20336480455230013 1.2839948427736791 0
      vertex 0 1.3 22.4
      vertex 0.20336480455230013 1.2839948427736791 22.4
    endloop
  endfacet
  facet normal 0.07845909572784467 0.9969173337331279 0
    outer loop
      vertex 0 1.3 22.4
      vertex 0.20336480455230013 1.2839948427736791 0
      vertex 0 1.3 0
    endloop
  endfacet
  facet normal -0.07845909572784467 0.9969173337331279 0
    outer loop
      vertex 0 1.3 0
      vertex -0.20336480455230013 1.2839948427736791 22.4
      vertex 0 1.3 22.4
    endloop
  endfacet
  facet normal -0.07845909572784467 0.9969173337331279 0
    outer loop
      vertex -0.20336480455230013 1.2839948427736791 22.4
      vertex 0 1.3 0
      vertex -0.20336480455230013 1.2839948427736791 0
    endloop
  endfacet
  facet normal -0.23344536385590628 0.9723699203976763 0
    outer loop
      vertex -0.20336480455230013 1.2839948427736791 0
      vertex -0.40172209268743164 1.2363734711836996 22.4
      vertex -0.20336480455230013 1.2839948427736791 22.4
    endloop
  endfacet
  facet normal -0.23344536385590628 0.9723699203976763 0
    outer loop
      vertex -0.40172209268743164 1.2363734711836996 22.4
      vertex -0.20336480455230013 1.2839948427736791 0
      vertex -0.40172209268743164 1.2363734711836996 0
    endloop
  endfacet
  facet normal -0.38268343236508895 0.9238795325112871 0
    outer loop
      vertex -0.40172209268743164 1.2363734711836996 0
      vertex -0.5901876496614109 1.1583084814448783 22.4
      vertex -0.40172209268743164 1.2363734711836996 22.4
    endloop
  endfacet
  facet normal -0.38268343236508895 0.9238795325112871 0
    outer loop
      vertex -0.5901876496614109 1.1583084814448783 22.4
      vertex -0.40172209268743164 1.2363734711836996 0
      vertex -0.5901876496614109 1.1583084814448783 0
    endloop
  endfacet
  facet normal -0.5224985647159489 0.8526401643540923 0
    outer loop
      vertex -0.5901876496614109 1.1583084814448783 0
      vertex -0.7641208279802151 1.0517220926874318 22.4
      vertex -0.5901876496614109 1.1583084814448783 22.4
    endloop
  endfacet
  facet normal -0.5224985647159489 0.8526401643540923 0
    outer loop
      vertex -0.7641208279802151 1.0517220926874318 22.4
      vertex -0.5901876496614109 1.1583084814448783 0
      vertex -0.7641208279802151 1.0517220926874318 0
    endloop
  endfacet
  facet normal -0.6494480483301837 0.7604059656000309 0
    outer loop
      vertex -0.7641208279802151 1.0517220926874318 0
      vertex -0.9192388155425119 0.9192388155425119 22.4
      vertex -0.7641208279802151 1.0517220926874318 22.4
    endloop
  endfacet
  facet normal -0.6494480483301837 0.7604059656000309 0
    outer loop
      vertex -0.9192388155425119 0.9192388155425119 22.4
      vertex -0.7641208279802151 1.0517220926874318 0
      vertex -0.9192388155425119 0.9192388155425119 0
    endloop
  endfacet
  facet normal -0.7604059656000309 0.6494480483301837 2.4877130394714792e-20
    outer loop
      vertex -1.0517220926874318 0.7641208279802151 0
      vertex -0.9192388155425119 0.9192388155425119 22.4
      vertex -0.9192388155425119 0.9192388155425119 0
    endloop
  endfacet
  facet normal -0.7604059656000309 0.6494480483301837 2.4877130394714792e-20
    outer loop
      vertex -0.9192388155425119 0.9192388155425119 22.4
      vertex -1.0517220926874318 0.7641208279802151 0
      vertex -1.0517220926874318 0.7641208279802151 22.4
    endloop
  endfacet
  facet normal -0.8526401643540923 0.5224985647159489 1.1994624265799186e-19
    outer loop
      vertex -1.1583084814448783 0.5901876496614109 0
      vertex -1.0517220926874318 0.7641208279802151 22.4
      vertex -1.0517220926874318 0.7641208279802151 0
    endloop
  endfacet
  facet normal -0.8526401643540923 0.5224985647159489 1.1994624265799186e-19
    outer loop
      vertex -1.0517220926874318 0.7641208279802151 22.4
      vertex -1.1583084814448783 0.5901876496614109 0
      vertex -1.1583084814448783 0.5901876496614109 22.4
    endloop
  endfacet
  facet normal -0.9238795325112871 0.38268343236508895 -1.0940343286126335e-19
    outer loop
      vertex -1.2363734711836996 0.40172209268743164 0
      vertex -1.1583084814448783 0.5901876496614109 22.4
      vertex -1.1583084814448783 0.5901876496614109 0
    endloop
  endfacet
  facet normal -0.9238795325112871 0.38268343236508895 -1.0940343286126335e-19
    outer loop
      vertex -1.1583084814448783 0.5901876496614109 22.4
      vertex -1.2363734711836996 0.40172209268743164 0
      vertex -1.2363734711836996 0.40172209268743164 22.4
    endloop
  endfacet
  facet normal -0.9723699203976763 0.23344536385590628 -1.8243356005427278e-19
    outer loop
      vertex -1.2839948427736791 0.20336480455230013 0
      vertex -1.2363734711836996 0.40172209268743164 22.4
      vertex -1.2363734711836996 0.40172209268743164 0
    endloop
  endfacet
  facet normal -0.9723699203976763 0.23344536385590628 -1.8243356005427278e-19
    outer loop
      vertex -1.2363734711836996 0.40172209268743164 22.4
      vertex -1.2839948427736791 0.20336480455230013 0
      vertex -1.2839948427736791 0.20336480455230013 22.4
    endloop
  endfacet
  facet normal -0.9969173337331279 0.07845909572784467 2.0606257719040626e-20
    outer loop
      vertex -1.3 0 0
      vertex -1.2839948427736791 0.20336480455230013 22.4
      vertex -1.2839948427736791 0.20336480455230013 0
    endloop
  endfacet
  facet normal -0.9969173337331279 0.07845909572784467 2.0606257719040626e-20
    outer loop
      vertex -1.2839948427736791 0.20336480455230013 22.4
      vertex -1.3 0 0
      vertex -1.3 0 22.4
    endloop
  endfacet
  facet normal -0.9969173337331279 -0.07845909572784467 -2.0606257719040626e-20
    outer loop
      vertex -1.2839948427736791 -0.20336480455230013 0
      vertex -1.3 0 22.4
      vertex -1.3 0 0
    endloop
  endfacet
  facet normal -0.9969173337331279 -0.07845909572784467 -2.0606257719040626e-20
    outer loop
      vertex -1.3 0 22.4
      vertex -1.2839948427736791 -0.20336480455230013 0
      vertex -1.2839948427736791 -0.20336480455230013 22.4
    endloop
  endfacet
  facet normal -0.9723699203976763 -0.23344536385590628 1.8243356005427278e-19
    outer loop
      vertex -1.2363734711836996 -0.40172209268743164 0
      vertex -1.2839948427736791 -0.20336480455230013 22.4
      vertex -1.2839948427736791 -0.20336480455230013 0
    endloop
  endfacet
  facet normal -0.9723699203976763 -0.23344536385590628 1.8243356005427278e-19
    outer loop
      vertex -1.2839948427736791 -0.20336480455230013 22.4
      vertex -1.2363734711836996 -0.40172209268743164 0
      vertex -1.2363734711836996 -0.40172209268743164 22.4
    endloop
  endfacet
  facet normal -0.9238795325112871 -0.38268343236508895 1.0940343286126335e-19
    outer loop
      vertex -1.1583084814448783 -0.5901876496614109 0
      vertex -1.2363734711836996 -0.40172209268743164 22.4
      vertex -1.2363734711836996 -0.40172209268743164 0
    endloop
  endfacet
  facet normal -0.9238795325112871 -0.38268343236508895 1.0940343286126335e-19
    outer loop
      vertex -1.2363734711836996 -0.40172209268743164 22.4
      vertex -1.1583084814448783 -0.5901876496614109 0
      vertex -1.1583084814448783 -0.5901876496614109 22.4
    endloop
  endfacet
  facet normal -0.8526401643540923 -0.5224985647159489 -1.1994624265799186e-19
    outer loop
      vertex -1.0517220926874318 -0.7641208279802151 0
      vertex -1.1583084814448783 -0.5901876496614109 22.4
      vertex -1.1583084814448783 -0.5901876496614109 0
    endloop
  endfacet
  facet normal -0.8526401643540923 -0.5224985647159489 -1.1994624265799186e-19
    outer loop
      vertex -1.1583084814448783 -0.5901876496614109 22.4
      vertex -1.0517220926874318 -0.7641208279802151 0
      vertex -1.0517220926874318 -0.7641208279802151 22.4
    endloop
  endfacet
  facet normal -0.7604059656000309 -0.6494480483301837 -2.4877130394714792e-20
    outer loop
      vertex -0.9192388155425119 -0.9192388155425119 0
      vertex -1.0517220926874318 -0.7641208279802151 22.4
      vertex -1.0517220926874318 -0.7641208279802151 0
    endloop
  endfacet
  facet normal -0.7604059656000309 -0.6494480483301837 -2.4877130394714792e-20
    outer loop
      vertex -1.0517220926874318 -0.7641208279802151 22.4
      vertex -0.9192388155425119 -0.9192388155425119 0
      vertex -0.9192388155425119 -0.9192388155425119 22.4
    endloop
  endfacet
  facet normal -0.6494480483301837 -0.7604059656000309 0
    outer loop
      vertex -0.9192388155425119 -0.9192388155425119 0
      vertex -0.7641208279802151 -1.0517220926874318 22.4
      vertex -0.9192388155425119 -0.9192388155425119 22.4
    endloop
  endfacet
  facet normal -0.6494480483301837 -0.7604059656000309 0
    outer loop
      vertex -0.7641208279802151 -1.0517220926874318 22.4
      vertex -0.9192388155425119 -0.9192388155425119 0
      vertex -0.7641208279802151 -1.0517220926874318 0
    endloop
  endfacet
  facet normal -0.5224985647159489 -0.8526401643540923 0
    outer loop
      vertex -0.7641208279802151 -1.0517220926874318 0
      vertex -0.5901876496614109 -1.1583084814448783 22.4
      vertex -0.7641208279802151 -1.0517220926874318 22.4
    endloop
  endfacet
  facet normal -0.5224985647159489 -0.8526401643540923 0
    outer loop
      vertex -0.5901876496614109 -1.1583084814448783 22.4
      vertex -0.7641208279802151 -1.0517220926874318 0
      vertex -0.5901876496614109 -1.1583084814448783 0
    endloop
  endfacet
  facet normal -0.38268343236508895 -0.9238795325112871 0
    outer loop
      vertex -0.5901876496614109 -1.1583084814448783 0
      vertex -0.40172209268743164 -1.2363734711836996 22.4
      vertex -0.5901876496614109 -1.1583084814448783 22.4
    endloop
  endfacet
  facet normal -0.38268343236508895 -0.9238795325112871 0
    outer loop
      vertex -0.40172209268743164 -1.2363734711836996 22.4
      vertex -0.5901876496614109 -1.1583084814448783 0
      vertex -0.40172209268743164 -1.2363734711836996 0
    endloop
  endfacet
  facet normal -0.23344536385590628 -0.9723699203976763 0
    outer loop
      vertex -0.40172209268743164 -1.2363734711836996 0
      vertex -0.20336480455230013 -1.2839948427736791 22.4
      vertex -0.40172209268743164 -1.2363734711836996 22.4
    endloop
  endfacet
  facet normal -0.23344536385590628 -0.9723699203976763 0
    outer loop
      vertex -0.20336480455230013 -1.2839948427736791 22.4
      vertex -0.40172209268743164 -1.2363734711836996 0
      vertex -0.20336480455230013 -1.2839948427736791 0
    endloop
  endfacet
  facet normal -0.07845909572784467 -0.9969173337331279 0
    outer loop
      vertex -0.20336480455230013 -1.2839948427736791 0
      vertex 0 -1.3 22.4
      vertex -0.20336480455230013 -1.2839948427736791 22.4
    endloop
  endfacet
  facet normal -0.07845909572784467 -0.9969173337331279 0
    outer loop
      vertex 0 -1.3 22.4
      vertex -0.20336480455230013 -1.2839948427736791 0
      vertex 0 -1.3 0
    endloop
  endfacet
  facet normal 0.07845909572784467 -0.9969173337331279 0
    outer loop
      vertex 0 -1.3 0
      vertex 0.20336480455230013 -1.2839948427736791 22.4
      vertex 0 -1.3 22.4
    endloop
  endfacet
  facet normal 0.07845909572784467 -0.9969173337331279 0
    outer loop
      vertex 0.20336480455230013 -1.2839948427736791 22.4
      vertex 0 -1.3 0
      vertex 0.20336480455230013 -1.2839948427736791 0
    endloop
  endfacet
  facet normal 0.23344536385590628 -0.9723699203976763 0
    outer loop
      vertex 0.20336480455230013 -1.2839948427736791 0
      vertex 0.40172209268743164 -1.2363734711836996 22.4
      vertex 0.20336480455230013 -1.2839948427736791 22.4
    endloop
  endfacet
  facet normal 0.23344536385590628 -0.9723699203976763 0
    outer loop
      vertex 0.40172209268743164 -1.2363734711836996 22.4
      vertex 0.20336480455230013 -1.2839948427736791 0
      vertex 0.40172209268743164 -1.2363734711836996 0
    endloop
  endfacet
  facet normal 0.38268343236508895 -0.9238795325112871 0
    outer loop
      vertex 0.40172209268743164 -1.2363734711836996 0
      vertex 0.5901876496614109 -1.1583084814448783 22.4
      vertex 0.40172209268743164 -1.2363734711836996 22.4
    endloop
  endfacet
  facet normal 0.38268343236508895 -0.9238795325112871 0
    outer loop
      vertex 0.5901876496614109 -1.1583084814448783 22.4
      vertex 0.40172209268743164 -1.2363734711836996 0
      vertex 0.5901876496614109 -1.1583084814448783 0
    endloop
  endfacet
  facet normal 0.5224985647159489 -0.8526401643540923 0
    outer loop
      vertex 0.5901876496614109 -1.1583084814448783 0
      vertex 0.7641208279802151 -1.0517220926874318 22.4
      vertex 0.5901876496614109 -1.1583084814448783 22.4
    endloop
  endfacet
  facet normal 0.5224985647159489 -0.8526401643540923 0
    outer loop
      vertex 0.7641208279802151 -1.0517220926874318 22.4
      vertex 0.5901876496614109 -1.1583084814448783 0
      vertex 0.7641208279802151 -1.0517220926874318 0
    endloop
  endfacet
  facet normal 0.6494480483301837 -0.7604059656000309 0
    outer loop
      vertex 0.7641208279802151 -1.0517220926874318 0
      vertex 0.9192388155425119 -0.9192388155425119 22.4
      vertex 0.7641208279802151 -1.0517220926874318 22.4
    endloop
  endfacet
  facet normal 0.6494480483301837 -0.7604059656000309 0
    outer loop
      vertex 0.9192388155425119 -0.9192388155425119 22.4
      vertex 0.7641208279802151 -1.0517220926874318 0
      vertex 0.9192388155425119 -0.9192388155425119 0
    endloop
  endfacet
  facet normal 0.7604059656000309 -0.6494480483301837 2.4877130394714792e-20
    outer loop
      vertex 0.9192388155425119 -0.9192388155425119 22.4
      vertex 1.0517220926874318 -0.7641208279802151 0
      vertex 1.0517220926874318 -0.7641208279802151 22.4
    endloop
  endfacet
  facet normal 0.7604059656000309 -0.6494480483301837 2.4877130394714792e-20
    outer loop
      vertex 1.0517220926874318 -0.7641208279802151 0
      vertex 0.9192388155425119 -0.9192388155425119 22.4
      vertex 0.9192388155425119 -0.9192388155425119 0
    endloop
  endfacet
  facet normal 0.8526401643540923 -0.5224985647159489 1.1994624265799186e-19
    outer loop
      vertex 1.0517220926874318 -0.7641208279802151 22.4
      vertex 1.1583084814448783 -0.5901876496614109 0
      vertex 1.1583084814448783 -0.5901876496614109 22.4
    endloop
  endfacet
  facet normal 0.8526401643540923 -0.5224985647159489 1.1994624265799186e-19
    outer loop
      vertex 1.1583084814448783 -0.5901876496614109 0
      vertex 1.0517220926874318 -0.7641208279802151 22.4
      vertex 1.0517220926874318 -0.7641208279802151 0
    endloop
  endfacet
  facet normal 0.9238795325112871 -0.38268343236508895 -1.0940343286126335e-19
    outer loop
      vertex 1.1583084814448783 -0.5901876496614109 22.4
      vertex 1.2363734711836996 -0.40172209268743164 0
      vertex 1.2363734711836996 -0.40172209268743164 22.4
    endloop
  endfacet
  facet normal 0.9238795325112871 -0.38268343236508895 -1.0940343286126335e-19
    outer loop
      vertex 1.2363734711836996 -0.40172209268743164 0
      vertex 1.1583084814448783 -0.5901876496614109 22.4
      vertex 1.1583084814448783 -0.5901876496614109 0
    endloop
  endfacet
  facet normal 0.9723699203976763 -0.23344536385590628 -1.8243356005427278e-19
    outer loop
      vertex 1.2363734711836996 -0.40172209268743164 22.4
      vertex 1.2839948427736791 -0.20336480455230013 0
      vertex 1.2839948427736791 -0.20336480455230013 22.4
    endloop
  endfacet
  facet normal 0.9723699203976763 -0.23344536385590628 -1.8243356005427278e-19
    outer loop
      vertex 1.2839948427736791 -0.20336480455230013 0
      vertex 1.2363734711836996 -0.40172209268743164 22.4
      vertex 1.2363734711836996 -0.40172209268743164 0
    endloop
  endfacet
  facet normal 0.9969173337331279 -0.07845909572784467 2.0606257719040626e-20
    outer loop
      vertex 1.2839948427736791 -0.20336480455230013 22.4
      vertex 1.3 0 0
      vertex 1.3 0 22.4
    endloop
  endfacet
  facet normal 0.9969173337331279 -0.07845909572784467 2.0606257719040626e-20
    outer loop
      vertex 1.3 0 0
      vertex 1.2839948427736791 -0.20336480455230013 22.4
      vertex 1.2839948427736791 -0.20336480455230013 0
    endloop
  endfacet
  facet normal 0 0 -1
    outer loop
      vertex 1.2839948427736791 -0.20336480455230013 0
      vertex 1.2839948427736791 0.20336480455230013 0
      vertex 1.3 0 0
    endloop
  endfacet
  facet normal 0 0 -1
    outer loop
      vertex 1.2363734711836996 -0.40172209268743164 0
      vertex 1.2839948427736791 0.20336480455230013 0
      vertex 1.2839948427736791 -0.20336480455230013 0
    endloop
  endfacet
  facet normal 0 0 -1
    outer loop
      vertex 1.2363734711836996 -0.40172209268743164 0
      vertex 1.2363734711836996 0.40172209268743164 0
      vertex 1.2839948427736791 0.20336480455230013 0
    endloop
  endfacet
  facet normal 0 0 -1
    outer loop
      vertex 1.1583084814448783 -0.5901876496614109 0
      vertex 1.2363734711836996 0.40172209268743164 0
      vertex 1.2363734711836996 -0.40172209268743164 0
    endloop
  endfacet
  facet normal 0 0 -1
    outer loop
      vertex 1.1583084814448783 -0.5901876496614109 0
      vertex 1.1583084814448783 0.5901876496614109 0
      vertex 1.2363734711836996 0.40172209268743164 0
    endloop
  endfacet
  facet normal 0 0 -1
    outer loop
      vertex 1.0517220926874318 -0.7641208279802151 0
      vertex 1.1583084814448783 0.5901876496614109 0
      vertex 1.1583084814448783 -0.5901876496614109 0
    endloop
  endfacet
  facet normal 0 0 -1
    outer loop
      vertex 1.0517220926874318 -0.7641208279802151 0
      vertex 1.0517220926874318 0.7641208279802151 0
      vertex 1.1583084814448783 0.5901876496614109 0
    endloop
  endfacet
  facet normal 0 0 -1
    outer loop
      vertex 0.9192388155425119 -0.9192388155425119 0
      vertex 1.0517220926874318 0.7641208279802151 0
      vertex 1.0517220926874318 -0.7641208279802151 0
    endloop
  endfacet
  facet normal 0 0 -1
    outer loop
      vertex 0.9192388155425119 -0.9192388155425119 0
      vertex 0.9192388155425119 0.9192388155425119 0
      vertex 1.0517220926874318 0.7641208279802151 0
    endloop
  endfacet
  facet normal 0 0 -1
    outer loop
      vertex 0.7641208279802151 -1.0517220926874318 0
      vertex 0.9192388155425119 0.9192388155425119 0
      vertex 0.9192388155425119 -0.9192388155425119 0
    endloop
  endfacet
  facet normal 0 0 -1
    outer loop
      vertex 0.7641208279802151 -1.0517220926874318 0
      vertex 0.7641208279802151 1.0517220926874318 0
      vertex 0.9192388155425119 0.9192388155425119 0
    endloop
  endfacet
  facet normal 0 0 -1
    outer loop
      vertex 0.5901876496614109 -1.1583084814448783 0
      vertex 0.7641208279802151 1.0517220926874318 0
      vertex 0.7641208279802151 -1.0517220926874318 0
    endloop
  endfacet
  facet normal 0 0 -1
    outer loop
      vertex 0.5901876496614109 -1.1583084814448783 0
      vertex 0.5901876496614109 1.1583084814448783 0
      vertex 0.7641208279802151 1.0517220926874318 0
    endloop
  endfacet
  facet normal 0 0 -1
    outer loop
      vertex 0.40172209268743164 -1.2363734711836996 0
      vertex 0.5901876496614109 1.1583084814448783 0
      vertex 0.5901876496614109 -1.1583084814448783 0
    endloop
  endfacet
  facet normal 0 0 -1
    outer loop
      vertex 0.40172209268743164 -1.2363734711836996 0
      vertex 0.40172209268743164 1.2363734711836996 0
      vertex 0.5901876496614109 1.1583084814448783 0
    endloop
  endfacet
  facet normal 0 0 -1
    outer loop
      vertex 0.20336480455230013 -1.2839948427736791 0
      vertex 0.40172209268743164 1.2363734711836996 0
      vertex 0.40172209268743164 -1.2363734711836996 0
    endloop
  endfacet
  facet normal 0 0 -1
    outer loop
      vertex 0.20336480455230013 -1.2839948427736791 0
      vertex 0.20336480455230013 1.2839948427736791 0
      vertex 0.40172209268743164 1.2363734711836996 0
    endloop
  endfacet
  facet normal 0 0 -1
    outer loop
      vertex 0 -1.3 0
      vertex 0.20336480455230013 1.2839948427736791 0
      vertex 0.20336480455230013 -1.2839948427736791 0
    endloop
  endfacet
  facet normal 0 0 -1
    outer loop
      vertex 0 -1.3 0
      vertex 0 1.3 0
      vertex 0.20336480455230013 1.2839948427736791 0
    endloop
  endfacet
  facet normal 0 0 -1
    outer loop
      vertex -0.20336480455230013 -1.2839948427736791 0
      vertex 0 1.3 0
      vertex 0 -1.3 0
    endloop
  endfacet
  facet normal 0 0 -1
    outer loop
      vertex -0.20336480455230013 -1.2839948427736791 0
      vertex -0.20336480455230013 1.2839948427736791 0
      vertex 0 1.3 0
    endloop
  endfacet
  facet normal 0 0 -1
    outer loop
      vertex -0.40172209268743164 -1.2363734711836996 0
      vertex -0.20336480455230013 1.2839948427736791 0
      vertex -0.20336480455230013 -1.2839948427736791 0
    endloop
  endfacet
  facet normal 0 0 -1
    outer loop
      vertex -0.40172209268743164 -1.2363734711836996 0
      vertex -0.40172209268743164 1.2363734711836996 0
      vertex -0.20336480455230013 1.2839948427736791 0
    endloop
  endfacet
  facet normal 0 0 -1
    outer loop
      vertex -0.5901876496614109 -1.1583084814448783 0
      vertex -0.40172209268743164 1.2363734711836996 0
      vertex -0.40172209268743164 -1.2363734711836996 0
    endloop
  endfacet
  facet normal 0 0 -1
    outer loop
      vertex -0.5901876496614109 -1.1583084814448783 0
      vertex -0.5901876496614109 1.1583084814448783 0
      vertex -0.40172209268743164 1.2363734711836996 0
    endloop
  endfacet
  facet normal 0 0 -1
    outer loop
      vertex -0.7641208279802151 -1.0517220926874318 0
      vertex -0.5901876496614109 1.1583084814448783 0
      vertex -0.5901876496614109 -1.1583084814448783 0
    endloop
  endfacet
  facet normal 0 0 -1
    outer loop
      vertex -0.7641208279802151 -1.0517220926874318 0
      vertex -0.7641208279802151 1.0517220926874318 0
      vertex -0.5901876496614109 1.1583084814448783 0
    endloop
  endfacet
  facet normal 0 0 -1
    outer loop
      vertex -0.9192388155425119 -0.9192388155425119 0
      vertex -0.7641208279802151 1.0517220926874318 0
      vertex -0.7641208279802151 -1.0517220926874318 0
    endloop
  endfacet
  facet normal 0 0 -1
    outer loop
      vertex -0.9192388155425119 -0.9192388155425119 0
      vertex -0.9192388155425119 0.9192388155425119 0
      vertex -0.7641208279802151 1.0517220926874318 0
    endloop
  endfacet
  facet normal 0 0 -1
    outer loop
      vertex -1.0517220926874318 -0.7641208279802151 0
      vertex -0.9192388155425119 0.9192388155425119 0
      vertex -0.9192388155425119 -0.9192388155425119 0
    endloop
  endfacet
  facet normal 0 0 -1
    outer loop
      vertex -1.0517220926874318 -0.7641208279802151 0
      vertex -1.0517220926874318 0.7641208279802151 0
      vertex -0.9192388155425119 0.9192388155425119 0
    endloop
  endfacet
  facet normal 0 0 -1
    outer loop
      vertex -1.1583084814448783 -0.5901876496614109 0
      vertex -1.0517220926874318 0.7641208279802151 0
      vertex -1.0517220926874318 -0.7641208279802151 0
    endloop
  endfacet
  facet normal 0 0 -1
    outer loop
      vertex -1.1583084814448783 -0.5901876496614109 0
      vertex -1.1583084814448783 0.5901876496614109 0
      vertex -1.0517220926874318 0.7641208279802151 0
    endloop
  endfacet
  facet normal 0 0 -1
    outer loop
      vertex -1.2363734711836996 -0.40172209268743164 0
      vertex -1.1583084814448783 0.5901876496614109 0
      vertex -1.1583084814448783 -0.5901876496614109 0
    endloop
  endfacet
  facet normal 0 0 -1
    outer loop
      vertex -1.2363734711836996 -0.40172209268743164 0
      vertex -1.2363734711836996 0.40172209268743164 0
      vertex -1.1583084814448783 0.5901876496614109 0
    endloop
  endfacet
  facet normal 0 0 -1
    outer loop
      vertex -1.2839948427736791 -0.20336480455230013 0
      vertex -1.2363734711836996 0.40172209268743164 0
      vertex -1.2363734711836996 -0.40172209268743164 0
    endloop
  endfacet
  facet normal 0 0 -1
    outer loop
      vertex -1.2839948427736791 -0.20336480455230013 0
      vertex -1.2839948427736791 0.20336480455230013 0
      vertex -1.2363734711836996 0.40172209268743164 0
    endloop
  endfacet
  facet normal 0 0 -1
    outer loop
      vertex -1.2839948427736791 0.20336480455230013 0
      vertex -1.2839948427736791 -0.20336480455230013 0
      vertex -1.3 0 0
    endloop
  endfacet
  facet normal 0 0 1
    outer loop
      vertex 1.2839948427736791 0.20336480455230013 22.4
      vertex 1.2839948427736791 -0.20336480455230013 22.4
      vertex 1.3 0 22.4
    endloop
  endfacet
  facet normal 0 0 1
    outer loop
      vertex 1.2363734711836996 0.40172209268743164 22.4
      vertex 1.2839948427736791 -0.20336480455230013 22.4
      vertex 1.2839948427736791 0.20336480455230013 22.4
    endloop
  endfacet
  facet normal 0 0 1
    outer loop
      vertex 1.2363734711836996 0.40172209268743164 22.4
      vertex 1.2363734711836996 -0.40172209268743164 22.4
      vertex 1.2839948427736791 -0.20336480455230013 22.4
    endloop
  endfacet
  facet normal 0 0 1
    outer loop
      vertex 1.1583084814448783 0.5901876496614109 22.4
      vertex 1.2363734711836996 -0.40172209268743164 22.4
      vertex 1.2363734711836996 0.40172209268743164 22.4
    endloop
  endfacet
  facet normal 0 0 1
    outer loop
      vertex 1.1583084814448783 0.5901876496614109 22.4
      vertex 1.1583084814448783 -0.5901876496614109 22.4
      vertex 1.2363734711836996 -0.40172209268743164 22.4
    endloop
  endfacet
  facet normal 0 0 1
    outer loop
      vertex 1.0517220926874318 0.7641208279802151 22.4
      vertex 1.1583084814448783 -0.5901876496614109 22.4
      vertex 1.1583084814448783 0.5901876496614109 22.4
    endloop
  endfacet
  facet normal 0 0 1
    outer loop
      vertex 1.0517220926874318 0.7641208279802151 22.4
      vertex 1.0517220926874318 -0.7641208279802151 22.4
      vertex 1.1583084814448783 -0.5901876496614109 22.4
    endloop
  endfacet
  facet normal 0 0 1
    outer loop
      vertex 0.9192388155425119 0.9192388155425119 22.4
      vertex 1.0517220926874318 -0.7641208279802151 22.4
      vertex 1.0517220926874318 0.7641208279802151 22.4
    endloop
  endfacet
  facet normal 0 0 1
    outer loop
      vertex 0.9192388155425119 0.9192388155425119 22.4
      vertex 0.9192388155425119 -0.9192388155425119 22.4
      vertex 1.0517220926874318 -0.7641208279802151 22.4
    endloop
  endfacet
  facet normal 0 0 1
    outer loop
      vertex 0.7641208279802151 1.0517220926874318 22.4
      vertex 0.9192388155425119 -0.9192388155425119 22.4
      vertex 0.9192388155425119 0.9192388155425119 22.4
    endloop
  endfacet
  facet normal 0 0 1
    outer loop
      vertex 0.7641208279802151 1.0517220926874318 22.4
      vertex 0.7641208279802151 -1.0517220926874318 22.4
      vertex 0.9192388155425119 -0.9192388155425119 22.4
    endloop
  endfacet
  facet normal 0 0 1
    outer loop
      vertex 0.5901876496614109 1.1583084814448783 22.4
      vertex 0.7641208279802151 -1.0517220926874318 22.4
      vertex 0.7641208279802151 1.0517220926874318 22.4
    endloop
  endfacet
  facet normal 0 0 1
    outer loop
      vertex 0.5901876496614109 1.1583084814448783 22.4
      vertex 0.5901876496614109 -1.1583084814448783 22.4
      vertex 0.7641208279802151 -1.0517220926874318 22.4
    endloop
  endfacet
  facet normal 0 0 1
    outer loop
      vertex 0.40172209268743164 1.2363734711836996 22.4
      vertex 0.5901876496614109 -1.1583084814448783 22.4
      vertex 0.5901876496614109 1.1583084814448783 22.4
    endloop
  endfacet
  facet normal 0 0 1
    outer loop
      vertex 0.40172209268743164 1.2363734711836996 22.4
      vertex 0.40172209268743164 -1.2363734711836996 22.4
      vertex 0.5901876496614109 -1.1583084814448783 22.4
    endloop
  endfacet
  facet normal 0 0 1
    outer loop
      vertex 0.20336480455230013 1.2839948427736791 22.4
      vertex 0.40172209268743164 -1.2363734711836996 22.4
      vertex 0.40172209268743164 1.2363734711836996 22.4
    endloop
  endfacet
  facet normal 0 0 1
    outer loop
      vertex 0.20336480455230013 1.2839948427736791 22.4
      vertex 0.20336480455230013 -1.2839948427736791 22.4
      vertex 0.40172209268743164 -1.2363734711836996 22.4
    endloop
  endfacet
  facet normal 0 0 1
    outer loop
      vertex 0 1.3 22.4
      vertex 0.20336480455230013 -1.2839948427736791 22.4
      vertex 0.20336480455230013 1.2839948427736791 22.4
    endloop
  endfacet
  facet normal 0 0 1
    outer loop
      vertex 0 1.3 22.4
      vertex 0 -1.3 22.4
      vertex 0.20336480455230013 -1.2839948427736791 22.4
    endloop
  endfacet
  facet normal 0 0 1
    outer loop
      vertex -0.20336480455230013 1.2839948427736791 22.4
      vertex 0 -1.3 22.4
      vertex 0 1.3 22.4
    endloop
  endfacet
  facet normal 0 0 1
    outer loop
      vertex -0.20336480455230013 1.2839948427736791 22.4
      vertex -0.20336480455230013 -1.2839948427736791 22.4
      vertex 0 -1.3 22.4
    endloop
  endfacet
  facet normal 0 0 1
    outer loop
      vertex -0.40172209268743164 1.2363734711836996 22.4
      vertex -0.20336480455230013 -1.2839948427736791 22.4
      vertex -0.20336480455230013 1.2839948427736791 22.4
    endloop
  endfacet
  facet normal 0 0 1
    outer loop
      vertex -0.40172209268743164 1.2363734711836996 22.4
      vertex -0.40172209268743164 -1.2363734711836996 22.4
      vertex -0.20336480455230013 -1.2839948427736791 22.4
    endloop
  endfacet
  facet normal 0 0 1
    outer loop
      vertex -0.5901876496614109 1.1583084814448783 22.4
      vertex -0.40172209268743164 -1.2363734711836996 22.4
      vertex -0.40172209268743164 1.2363734711836996 22.4
    endloop
  endfacet
  facet normal 0 0 1
    outer loop
      vertex -0.5901876496614109 1.1583084814448783 22.4
      vertex -0.5901876496614109 -1.1583084814448783 22.4
      vertex -0.40172209268743164 -1.2363734711836996 22.4
    endloop
  endfacet
  facet normal 0 0 1
    outer loop
      vertex -0.7641208279802151 1.0517220926874318 22.4
      vertex -0.5901876496614109 -1.1583084814448783 22.4
      vertex -0.5901876496614109 1.1583084814448783 22.4
    endloop
  endfacet
  facet normal 0 0 1
    outer loop
      vertex -0.7641208279802151 1.0517220926874318 22.4
      vertex -0.7641208279802151 -1.0517220926874318 22.4
      vertex -0.5901876496614109 -1.1583084814448783 22.4
    endloop
  endfacet
  facet normal 0 0 1
    outer loop
      vertex -0.9192388155425119 0.9192388155425119 22.4
      vertex -0.7641208279802151 -1.0517220926874318 22.4
      vertex -0.7641208279802151 1.0517220926874318 22.4
    endloop
  endfacet
  facet normal 0 0 1
    outer loop
      vertex -0.9192388155425119 0.9192388155425119 22.4
      vertex -0.9192388155425119 -0.9192388155425119 22.4
      vertex -0.7641208279802151 -1.0517220926874318 22.4
    endloop
  endfacet
  facet normal 0 0 1
    outer loop
      vertex -1.0517220926874318 0.7641208279802151 22.4
      vertex -0.9192388155425119 -0.9192388155425119 22.4
      vertex -0.9192388155425119 0.9192388155425119 22.4
    endloop
  endfacet
  facet normal 0 0 1
    outer loop
      vertex -1.0517220926874318 0.7641208279802151 22.4
      vertex -1.0517220926874318 -0.7641208279802151 22.4
      vertex -0.9192388155425119 -0.9192388155425119 22.4
    endloop
  endfacet
  facet normal 0 0 1
    outer loop
      vertex -1.1583084814448783 0.5901876496614109 22.4
      vertex -1.0517220926874318 -0.7641208279802151 22.4
      vertex -1.0517220926874318 0.7641208279802151 22.4
    endloop
  endfacet
  facet normal 0 0 1
    outer loop
      vertex -1.1583084814448783 0.5901876496614109 22.4
      vertex -1.1583084814448783 -0.5901876496614109 22.4
      vertex -1.0517220926874318 -0.7641208279802151 22.4
    endloop
  endfacet
  facet normal 0 0 1
    outer loop
      vertex -1.2363734711836996 0.40172209268743164 22.4
      vertex -1.1583084814448783 -0.5901876496614109 22.4
      vertex -1.1583084814448783 0.5901876496614109 22.4
    endloop
  endfacet
  facet normal 0 0 1
    outer loop
      vertex -1.2363734711836996 0.40172209268743164 22.4
      vertex -1.2363734711836996 -0.40172209268743164 22.4
      vertex -1.1583084814448783 -0.5901876496614109 22.4
    endloop
  endfacet
  facet normal 0 0 1
    outer loop
      vertex -1.2839948427736791 0.20336480455230013 22.4
      vertex -1.2363734711836996 -0.40172209268743164 22.4
      vertex -1.2363734711836996 0.40172209268743164 22.4
    endloop
  endfacet
  facet normal 0 0 1
    outer loop
      vertex -1.2839948427736791 0.20336480455230013 22.4
      vertex -1.2839948427736791 -0.20336480455230013 22.4
      vertex -1.2363734711836996 -0.40172209268743164 22.4
    endloop
  endfacet
  facet normal 0 0 1
    outer loop
      vertex -1.2839948427736791 -0.20336480455230013 22.4
      vertex -1.2839948427736791 0.20336480455230013 22.4
      vertex -1.3 0 22.4
    endloop
  endfacet
endsolid OpenSCAD_Model
