solid OpenSCAD_Model
  facet normal 0 0 -1
    outer loop
      vertex 0 0 0
      vertex 7.9639320225002095 7.6488589908301075 0
      vertex 8.523477574564566 7.027420698090423 0
    endloop
  endfacet
  facet normal 0 0 -1
    outer loop
      vertex 0 0 0
      vertex 7.199999999999999 10 0
      vertex 7.2874095970647765 9.168353236728963 0
    endloop
  endfacet
  facet normal 0 0 -1
    outer loop
      vertex 0 0 0
      vertex 7.2874095970647765 10.831646763271037 0
      vertex 7.199999999999999 10 0
    endloop
  endfacet
  facet normal 0 0 -1
    outer loop
      vertex 0 0 0
      vertex 7.545818169429596 8.3730534276968 0
      vertex 7.9639320225002095 7.6488589908301075 0
    endloop
  endfacet
  facet normal 0 0 -1
    outer loop
      vertex 0 0 0
      vertex 7.2874095970647765 9.168353236728963 0
      vertex 7.545818169429596 8.3730534276968 0
    endloop
  endfacet
  facet normal 5.511676800539021e-17 -0.6782801027330658 0.7348034446274879
    outer loop
      vertex 0 0 2
      vertex 2 1.304683603411874 3.204323326226345
      vertex 2 18.7035709923359 19.264834762156216
    endloop
  endfacet
  facet normal 0 0 -1
    outer loop
      vertex 0 0 0
      vertex 0 28 0
      vertex 7.9639320225002095 12.351141009169893 0
    endloop
  endfacet
  facet normal 0 0 -1
    outer loop
      vertex 0 0 0
      vertex 7.545818169429596 11.6269465723032 0
      vertex 7.2874095970647765 10.831646763271037 0
    endloop
  endfacet
  facet normal 0 0 -1
    outer loop
      vertex 0 0 0
      vertex 7.9639320225002095 12.351141009169893 0
      vertex 7.545818169429596 11.6269465723032 0
    endloop
  endfacet
  facet normal -1 0 0
    outer loop
      vertex 0 0 0
      vertex 0 0 2
      vertex 0 26 26
    endloop
  endfacet
  facet normal 0 -1 0
    outer loop
      vertex 0 0 0
      vertex 22.4 0 2
      vertex 0 0 2
    endloop
  endfacet
  facet normal 0 -0.6782801027330658 0.734803444627488
    outer loop
      vertex 0 0 2
      vertex 22.4 0 2
      vertex 2 1.304683603411874 3.204323326226345
    endloop
  endfacet
  facet normal 0 0 -1
    outer loop
      vertex 0 0 0
      vertex 8.523477574564566 7.027420698090423 0
      vertex 9.2 6.535898384862246 0
    endloop
  endfacet
  facet normal 0 0 -1
    outer loop
      vertex 0 0 0
      vertex 9.2 6.535898384862246 0
      vertex 9.96393202250021 6.195773934819385 0
    endloop
  endfacet
  facet normal 0 0 -1
    outer loop
      vertex 0 0 0
      vertex 9.96393202250021 6.195773934819385 0
      vertex 10.781886146929386 6.021912418526907 0
    endloop
  endfacet
  facet normal 0 0 -1
    outer loop
      vertex 0 0 0
      vertex 10.781886146929386 6.021912418526907 0
      vertex 11.618113853070613 6.021912418526907 0
    endloop
  endfacet
  facet normal 0 0 -1
    outer loop
      vertex 0 0 0
      vertex 11.618113853070613 6.021912418526907 0
      vertex 12.436067977499789 6.195773934819385 0
    endloop
  endfacet
  facet normal -1 0 0
    outer loop
      vertex 0 0 0
      vertex 0 28 26
      vertex 0 28 0
    endloop
  endfacet
  facet normal 0 0 -1
    outer loop
      vertex 0 28 0
      vertex 6.199999999999999 23 0
      vertex 7.9639320225002095 12.351141009169893 0
    endloop
  endfacet
  facet normal 0 0 -1
    outer loop
      vertex 0 28 0
      vertex 6.199999999999999 28 0
      vertex 6.199999999999999 23 0
    endloop
  endfacet
  facet normal 0 1 0
    outer loop
      vertex 0 28 0
      vertex 6.199999999999999 28 7
      vertex 6.199999999999999 28 0
    endloop
  endfacet
  facet normal 0 1 0
    outer loop
      vertex 0 28 0
      vertex 2 28 17.01110699893027
      vertex 6.199999999999999 28 7
    endloop
  endfacet
  facet normal 0 0 -1
    outer loop
      vertex 7.9639320225002095 12.351141009169893 0
      vertex 6.199999999999999 23 0
      vertex 8.523477574564566 12.972579301909576 0
    endloop
  endfacet
  facet normal 0 0 -1
    outer loop
      vertex 8.523477574564566 12.972579301909576 0
      vertex 6.199999999999999 23 0
      vertex 9.2 13.464101615137753 0
    endloop
  endfacet
  facet normal 0 0 -1
    outer loop
      vertex 9.2 13.464101615137753 0
      vertex 6.199999999999999 23 0
      vertex 16.2 23 0
    endloop
  endfacet
  facet normal 0 1 0
    outer loop
      vertex 2 28 17.01110699893027
      vertex 16.2 28 7
      vertex 6.199999999999999 28 7
    endloop
  endfacet
  facet normal 4.01622499839662e-16 -0.6782801027330658 0.7348034446274879
    outer loop
      vertex 0 0 2
      vertex 2 18.7035709923359 19.264834762156216
      vertex 0 26 26
    endloop
  endfacet
  facet normal -1 0 0
    outer loop
      vertex 0 0 0
      vertex 0 26 26
      vertex 0 28 26
    endloop
  endfacet
  facet normal 0 1 0
    outer loop
      vertex 0 28 0
      vertex 0 28 26
      vertex 2 28 17.01110699893027
    endloop
  endfacet
  facet normal 0 1 0
    outer loop
      vertex 0 28 26
      vertex 2 28 24.63213055223333
      vertex 2 28 17.01110699893027
    endloop
  endfacet
  facet normal -1.490572970437767e-16 -0.6782801027330658 0.7348034446274878
    outer loop
      vertex 0 26 26
      vertex 2 18.7035709923359 19.264834762156216
      vertex 20.4 18.703570992335898 19.264834762156216
    endloop
  endfacet
  facet normal 0 1 0
    outer loop
      vertex 0 28 26
      vertex 20.4 28 24.63213055223333
      vertex 2 28 24.63213055223333
    endloop
  endfacet
  facet normal 0 0 1
    outer loop
      vertex 0 26 26
      vertex 22.4 28 26
      vertex 0 28 26
    endloop
  endfacet
  facet normal 0 0 -1
    outer loop
      vertex 0 0 0
      vertex 12.436067977499789 6.195773934819385 0
      vertex 22.4 0 0
    endloop
  endfacet
  facet normal 0 -1 0
    outer loop
      vertex 0 0 0
      vertex 22.4 0 0
      vertex 22.4 0 2
    endloop
  endfacet
  facet normal -1.1784195093501859e-18 -0.6782801027330657 0.734803444627488
    outer loop
      vertex 22.4 0 2
      vertex 20.4 1.304683603411874 3.204323326226345
      vertex 2 1.304683603411874 3.204323326226345
    endloop
  endfacet
  facet normal 0 0 -1
    outer loop
      vertex 22.4 0 0
      vertex 12.436067977499789 6.195773934819385 0
      vertex 13.2 6.535898384862246 0
    endloop
  endfacet
  facet normal 0 0 -1
    outer loop
      vertex 22.4 0 0
      vertex 13.2 6.535898384862246 0
      vertex 13.876522425435432 7.027420698090423 0
    endloop
  endfacet
  facet normal 0 0 -1
    outer loop
      vertex 22.4 0 0
      vertex 13.876522425435432 7.027420698090423 0
      vertex 14.436067977499789 7.6488589908301075 0
    endloop
  endfacet
  facet normal 0 0 -1
    outer loop
      vertex 22.4 0 0
      vertex 14.436067977499789 7.6488589908301075 0
      vertex 14.854181830570402 8.3730534276968 0
    endloop
  endfacet
  facet normal 0 0 -1
    outer loop
      vertex 22.4 0 0
      vertex 14.854181830570402 8.3730534276968 0
      vertex 15.112590402935222 9.168353236728963 0
    endloop
  endfacet
  facet normal 0 0 -1
    outer loop
      vertex 22.4 0 0
      vertex 15.112590402935222 9.168353236728963 0
      vertex 15.2 10 0
    endloop
  endfacet
  facet normal 0 0 -1
    outer loop
      vertex 22.4 0 0
      vertex 15.2 10 0
      vertex 15.112590402935222 10.831646763271037 0
    endloop
  endfacet
  facet normal -1.6861645076280544e-16 -0.6782801027330658 0.7348034446274878
    outer loop
      vertex 22.4 0 2
      vertex 20.4 18.703570992335898 19.264834762156216
      vertex 20.4 1.304683603411874 3.204323326226345
    endloop
  endfacet
  facet normal 0 0 -1
    outer loop
      vertex 22.4 0 0
      vertex 15.112590402935222 10.831646763271037 0
      vertex 14.854181830570402 11.6269465723032 0
    endloop
  endfacet
  facet normal 0 0 -1
    outer loop
      vertex 22.4 0 0
      vertex 14.854181830570402 11.6269465723032 0
      vertex 22.4 28 0
    endloop
  endfacet
  facet normal 1 0 0
    outer loop
      vertex 22.4 0 0
      vertex 22.4 28 26
      vertex 22.4 0 2
    endloop
  endfacet
  facet normal 0 0 -1
    outer loop
      vertex 9.2 13.464101615137753 0
      vertex 16.2 23 0
      vertex 9.96393202250021 13.804226065180615 0
    endloop
  endfacet
  facet normal 0 0 -1
    outer loop
      vertex 9.96393202250021 13.804226065180615 0
      vertex 16.2 23 0
      vertex 10.781886146929386 13.978087581473094 0
    endloop
  endfacet
  facet normal 0 0 -1
    outer loop
      vertex 22.4 28 0
      vertex 11.618113853070613 13.978087581473094 0
      vertex 10.781886146929386 13.978087581473094 0
    endloop
  endfacet
  facet normal 0 0 -1
    outer loop
      vertex 22.4 28 0
      vertex 12.436067977499789 13.804226065180615 0
      vertex 11.618113853070613 13.978087581473094 0
    endloop
  endfacet
  facet normal 0 0 -1
    outer loop
      vertex 22.4 28 0
      vertex 13.2 13.464101615137753 0
      vertex 12.436067977499789 13.804226065180615 0
    endloop
  endfacet
  facet normal 0 0 -1
    outer loop
      vertex 22.4 28 0
      vertex 13.876522425435432 12.972579301909576 0
      vertex 13.2 13.464101615137753 0
    endloop
  endfacet
  facet normal 0 0 -1
    outer loop
      vertex 22.4 28 0
      vertex 10.781886146929386 13.978087581473094 0
      vertex 16.2 23 0
    endloop
  endfacet
  facet normal 0 0 -1
    outer loop
      vertex 22.4 28 0
      vertex 14.854181830570402 11.6269465723032 0
      vertex 14.436067977499789 12.351141009169893 0
    endloop
  endfacet
  facet normal 0 0 -1
    outer loop
      vertex 22.4 28 0
      vertex 14.436067977499789 12.351141009169893 0
      vertex 13.876522425435432 12.972579301909576 0
    endloop
  endfacet
  facet normal 1 0 0
    outer loop
      vertex 22.4 0 0
      vertex 22.4 28 0
      vertex 22.4 28 26
    endloop
  endfacet
  facet normal 0 0 -1
    outer loop
      vertex 22.4 28 0
      vertex 16.2 23 0
      vertex 16.2 28 0
    endloop
  endfacet
  facet normal 0 1 0
    outer loop
      vertex 22.4 28 0
      vertex 16.2 28 0
      vertex 16.2 28 7
    endloop
  endfacet
  facet normal 0 1 0
    outer loop
      vertex 22.4 28 0
      vertex 16.2 28 7
      vertex 20.4 28 17.01110699893027
    endloop
  endfacet
  facet normal 0 1 0
    outer loop
      vertex 2 28 17.01110699893027
      vertex 20.4 28 17.01110699893027
      vertex 16.2 28 7
    endloop
  endfacet
  facet normal 0 -0.6782801027330657 0.7348034446274881
    outer loop
      vertex 0 26 26
      vertex 20.4 18.703570992335898 19.264834762156216
      vertex 22.4 26 26
    endloop
  endfacet
  facet normal 0 1 0
    outer loop
      vertex 0 28 26
      vertex 22.4 28 26
      vertex 20.4 28 24.63213055223333
    endloop
  endfacet
  facet normal 0 0 1
    outer loop
      vertex 0 26 26
      vertex 22.4 26 26
      vertex 22.4 28 26
    endloop
  endfacet
  facet normal 9.036506246392394e-16 -0.6782801027330658 0.7348034446274879
    outer loop
      vertex 22.4 0 2
      vertex 22.4 26 26
      vertex 20.4 18.703570992335898 19.264834762156216
    endloop
  endfacet
  facet normal 1 0 0
    outer loop
      vertex 22.4 0 2
      vertex 22.4 28 26
      vertex 22.4 26 26
    endloop
  endfacet
  facet normal 0 1 0
    outer loop
      vertex 22.4 28 0
      vertex 20.4 28 17.01110699893027
      vertex 20.4 28 24.63213055223333
    endloop
  endfacet
  facet normal 0 1 0
    outer loop
      vertex 22.4 28 0
      vertex 20.4 28 24.63213055223333
      vertex 22.4 28 26
    endloop
  endfacet
  facet normal -3.9887495076240705e-16 -0.49999999999999994 0.8660254037844387
    outer loop
      vertex 2 2 2
      vertex 7.2874095970647765 9.168353236728963 6.138650670871793
      vertex 7.199999999999999 10 6.618802153517007
    endloop
  endfacet
  facet normal 1.6973777876343012e-15 -0.5000000000000006 0.8660254037844384
    outer loop
      vertex 2 2 2
      vertex 7.199999999999999 10 6.618802153517007
      vertex 7.2874095970647765 10.831646763271037 7.098953636162221
    endloop
  endfacet
  facet normal 1 0 0
    outer loop
      vertex 2 2 2
      vertex 2 18.7035709923359 19.264834762156216
      vertex 2 1.304683603411874 3.204323326226345
    endloop
  endfacet
  facet normal -3.875923122174797e-17 -0.4999999999999999 0.8660254037844386
    outer loop
      vertex 2 2 2
      vertex 7.545818169429596 11.6269465723032 7.558120194993398
      vertex 2 28 17.01110699893027
    endloop
  endfacet
  facet normal 0 0.8660254037844387 0.5000000000000001
    outer loop
      vertex 2 2 2
      vertex 2 1.304683603411874 3.204323326226345
      vertex 20.4 2 2
    endloop
  endfacet
  facet normal -2.6609084374950504e-16 -0.49999999999999983 0.8660254037844388
    outer loop
      vertex 2 2 2
      vertex 9.2 6.535898384862246 4.618802153517007
      vertex 8.523477574564566 7.027420698090423 4.902582693372002
    endloop
  endfacet
  facet normal 3.1431317387995214e-17 -0.49999999999999983 0.8660254037844387
    outer loop
      vertex 2 2 2
      vertex 8.523477574564566 7.027420698090423 4.902582693372002
      vertex 7.9639320225002095 7.6488589908301075 5.26137025897
    endloop
  endfacet
  facet normal 1.729888634661054e-16 -0.5000000000000002 0.8660254037844386
    outer loop
      vertex 2 2 2
      vertex 7.9639320225002095 7.6488589908301075 5.26137025897
      vertex 7.545818169429596 8.3730534276968 5.6794841120406145
    endloop
  endfacet
  facet normal 7.513905440325249e-16 -0.5000000000000004 0.8660254037844383
    outer loop
      vertex 2 2 2
      vertex 7.545818169429596 8.3730534276968 5.6794841120406145
      vertex 7.2874095970647765 9.168353236728963 6.138650670871793
    endloop
  endfacet
  facet normal 2.74933858587502e-16 -0.5000000000000004 0.8660254037844384
    outer loop
      vertex 2 2 2
      vertex 9.96393202250021 6.195773934819385 4.422431210726788
      vertex 9.2 6.535898384862246 4.618802153517007
    endloop
  endfacet
  facet normal 0 -0.5 0.8660254037844386
    outer loop
      vertex 2 2 2
      vertex 20.4 2 2
      vertex 9.96393202250021 6.195773934819385 4.422431210726788
    endloop
  endfacet
  facet normal -5.550617865805963e-15 -0.4999999999999984 0.8660254037844396
    outer loop
      vertex 2 2 2
      vertex 7.2874095970647765 10.831646763271037 7.098953636162221
      vertex 7.545818169429596 11.6269465723032 7.558120194993398
    endloop
  endfacet
  facet normal 1 0 0
    outer loop
      vertex 2 2 2
      vertex 2 28 17.01110699893027
      vertex 2 18.7035709923359 19.264834762156216
    endloop
  endfacet
  facet normal -5.819342768126648e-16 -0.5000000000000001 0.8660254037844385
    outer loop
      vertex 7.545818169429596 11.6269465723032 7.558120194993398
      vertex 7.9639320225002095 12.351141009169893 7.976234048064013
      vertex 2 28 17.01110699893027
    endloop
  endfacet
  facet normal -1.0280244336222833e-15 -0.5000000000000002 0.8660254037844385
    outer loop
      vertex 7.9639320225002095 12.351141009169893 7.976234048064013
      vertex 8.523477574564566 12.972579301909576 8.335021613662011
      vertex 2 28 17.01110699893027
    endloop
  endfacet
  facet normal -6.461490463300469e-16 -0.5000000000000002 0.8660254037844385
    outer loop
      vertex 8.523477574564566 12.972579301909576 8.335021613662011
      vertex 9.2 13.464101615137753 8.618802153517008
      vertex 2 28 17.01110699893027
    endloop
  endfacet
  facet normal 1.6987797384034187e-15 -0.49999999999999933 0.8660254037844392
    outer loop
      vertex 9.2 13.464101615137753 8.618802153517008
      vertex 9.96393202250021 13.804226065180615 8.815173096307225
      vertex 2 28 17.01110699893027
    endloop
  endfacet
  facet normal 1.0259632139214075e-15 -0.4999999999999996 0.8660254037844388
    outer loop
      vertex 9.96393202250021 13.804226065180615 8.815173096307225
      vertex 10.781886146929386 13.978087581473094 8.915552089540403
      vertex 2 28 17.01110699893027
    endloop
  endfacet
  facet normal -1.8396546034161686e-15 -0.5000000000000009 0.866025403784438
    outer loop
      vertex 10.781886146929386 13.978087581473094 8.915552089540403
      vertex 11.618113853070613 13.978087581473094 8.915552089540405
      vertex 2 28 17.01110699893027
    endloop
  endfacet
  facet normal 1 0 0
    outer loop
      vertex 2 18.7035709923359 19.264834762156216
      vertex 2 28 17.01110699893027
      vertex 2 28 24.63213055223333
    endloop
  endfacet
  facet normal 9.65411325761006e-17 0.5000000000000001 -0.8660254037844385
    outer loop
      vertex 2 18.7035709923359 19.264834762156216
      vertex 2 28 24.63213055223333
      vertex 20.4 18.703570992335898 19.264834762156216
    endloop
  endfacet
  facet normal 7.126046369009212e-16 -0.49999999999999867 0.8660254037844394
    outer loop
      vertex 9.96393202250021 6.195773934819385 4.422431210726788
      vertex 20.4 2 2
      vertex 10.781886146929386 6.021912418526907 4.322052217493608
    endloop
  endfacet
  facet normal -1.504601457864207e-18 0.8660254037844387 0.5000000000000001
    outer loop
      vertex 20.4 2 2
      vertex 2 1.304683603411874 3.204323326226345
      vertex 20.4 1.304683603411874 3.204323326226345
    endloop
  endfacet
  facet normal -9.198273017080837e-16 -0.5000000000000016 0.8660254037844377
    outer loop
      vertex 10.781886146929386 6.021912418526907 4.322052217493608
      vertex 20.4 2 2
      vertex 11.618113853070613 6.021912418526907 4.322052217493609
    endloop
  endfacet
  facet normal -2.0717387309251236e-16 -0.5000000000000004 0.8660254037844385
    outer loop
      vertex 11.618113853070613 6.021912418526907 4.322052217493609
      vertex 20.4 2 2
      vertex 12.436067977499789 6.195773934819385 4.4224312107267885
    endloop
  endfacet
  facet normal 3.4694610883054137e-16 -0.49999999999999967 0.8660254037844389
    outer loop
      vertex 12.436067977499789 6.195773934819385 4.4224312107267885
      vertex 20.4 2 2
      vertex 13.2 6.535898384862246 4.618802153517007
    endloop
  endfacet
  facet normal 1.9313952247737257e-16 -0.49999999999999983 0.8660254037844387
    outer loop
      vertex 13.2 6.535898384862246 4.618802153517007
      vertex 20.4 2 2
      vertex 13.876522425435432 7.027420698090423 4.902582693372002
    endloop
  endfacet
  facet normal 7.421175043377683e-17 -0.49999999999999994 0.8660254037844386
    outer loop
      vertex 13.876522425435432 7.027420698090423 4.902582693372002
      vertex 20.4 2 2
      vertex 14.436067977499789 7.6488589908301075 5.26137025897
    endloop
  endfacet
  facet normal -6.928687095254284e-16 -0.5000000000000006 0.8660254037844383
    outer loop
      vertex 14.436067977499789 7.6488589908301075 5.26137025897
      vertex 20.4 2 2
      vertex 14.854181830570402 8.3730534276968 5.679484112040615
    endloop
  endfacet
  facet normal 3.6812858963173644e-16 -0.49999999999999983 0.8660254037844387
    outer loop
      vertex 14.854181830570402 8.3730534276968 5.679484112040615
      vertex 20.4 2 2
      vertex 15.112590402935222 9.168353236728963 6.138650670871793
    endloop
  endfacet
  facet normal 2.448959052676366e-16 -0.5 0.8660254037844388
    outer loop
      vertex 15.112590402935222 9.168353236728963 6.138650670871793
      vertex 20.4 2 2
      vertex 20.4 28 17.01110699893027
    endloop
  endfacet
  facet normal -1 0 0
    outer loop
      vertex 20.4 2 2
      vertex 20.4 1.304683603411874 3.204323326226345
      vertex 20.4 18.703570992335898 19.264834762156216
    endloop
  endfacet
  facet normal 2.5781381972659505e-15 -0.5000000000000007 0.8660254037844384
    outer loop
      vertex 14.854181830570402 11.6269465723032 7.5581201949934
      vertex 15.112590402935222 10.831646763271037 7.0989536361622205
      vertex 20.4 28 17.01110699893027
    endloop
  endfacet
  facet normal -1.6092470587083154e-15 -0.49999999999999956 0.866025403784439
    outer loop
      vertex 14.436067977499789 12.351141009169893 7.976234048064013
      vertex 14.854181830570402 11.6269465723032 7.5581201949934
      vertex 20.4 28 17.01110699893027
    endloop
  endfacet
  facet normal -9.978220230988262e-16 -0.4999999999999995 0.8660254037844388
    outer loop
      vertex 11.618113853070613 13.978087581473094 8.915552089540405
      vertex 12.436067977499789 13.804226065180615 8.815173096307227
      vertex 20.4 28 17.01110699893027
    endloop
  endfacet
  facet normal 1.5771520382727745e-15 -0.5000000000000007 0.8660254037844384
    outer loop
      vertex 12.436067977499789 13.804226065180615 8.815173096307227
      vertex 13.2 13.464101615137753 8.618802153517006
      vertex 20.4 28 17.01110699893027
    endloop
  endfacet
  facet normal 6.043262563460285e-16 -0.5000000000000002 0.8660254037844386
    outer loop
      vertex 13.2 13.464101615137753 8.618802153517006
      vertex 13.876522425435432 12.972579301909576 8.33502161366201
      vertex 20.4 28 17.01110699893027
    endloop
  endfacet
  facet normal -9.053449760383969e-16 -0.49999999999999967 0.8660254037844387
    outer loop
      vertex 13.876522425435432 12.972579301909576 8.33502161366201
      vertex 14.436067977499789 12.351141009169893 7.976234048064013
      vertex 20.4 28 17.01110699893027
    endloop
  endfacet
  facet normal 4.585750409831678e-15 -0.5000000000000009 0.866025403784438
    outer loop
      vertex 15.112590402935222 9.168353236728963 6.138650670871793
      vertex 20.4 28 17.01110699893027
      vertex 15.2 10 6.618802153517008
    endloop
  endfacet
  facet normal -2.8691514931123196e-15 -0.49999999999999933 0.866025403784439
    outer loop
      vertex 15.2 10 6.618802153517008
      vertex 20.4 28 17.01110699893027
      vertex 15.112590402935222 10.831646763271037 7.0989536361622205
    endloop
  endfacet
  facet normal -8.035125953842936e-18 -0.5 0.8660254037844387
    outer loop
      vertex 11.618113853070613 13.978087581473094 8.915552089540405
      vertex 20.4 28 17.01110699893027
      vertex 2 28 17.01110699893027
    endloop
  endfacet
  facet normal 0 0.5 -0.8660254037844387
    outer loop
      vertex 20.4 28 24.63213055223333
      vertex 20.4 18.703570992335898 19.264834762156216
      vertex 2 28 24.63213055223333
    endloop
  endfacet
  facet normal -1 0 0
    outer loop
      vertex 20.4 2 2
      vertex 20.4 18.703570992335898 19.264834762156216
      vertex 20.4 28 24.63213055223333
    endloop
  endfacet
  facet normal -1 0 0
    outer loop
      vertex 20.4 2 2
      vertex 20.4 28 24.63213055223333
      vertex 20.4 28 17.01110699893027
    endloop
  endfacet
  facet normal 1 0 0
    outer loop
      vertex 6.199999999999999 23 7
      vertex 6.199999999999999 23 0
      vertex 6.199999999999999 28 0
    endloop
  endfacet
  facet normal 1 0 0
    outer loop
      vertex 6.199999999999999 23 7
      vertex 6.199999999999999 28 0
      vertex 6.199999999999999 28 7
    endloop
  endfacet
  facet normal 0 1 0
    outer loop
      vertex 6.199999999999999 23 7
      vertex 16.2 23 0
      vertex 6.199999999999999 23 0
    endloop
  endfacet
  facet normal 0 0 -1
    outer loop
      vertex 6.199999999999999 23 7
      vertex 6.199999999999999 28 7
      vertex 16.2 23 7
    endloop
  endfacet
  facet normal 0 1 0
    outer loop
      vertex 6.199999999999999 23 7
      vertex 16.2 23 7
      vertex 16.2 23 0
    endloop
  endfacet
  facet normal -1 0 0
    outer loop
      vertex 16.2 28 0
      vertex 16.2 23 0
      vertex 16.2 28 7
    endloop
  endfacet
  facet normal -1 0 0
    outer loop
      vertex 16.2 23 7
      vertex 16.2 28 7
      vertex 16.2 23 0
    endloop
  endfacet
  facet normal 0 0 -1
    outer loop
      vertex 16.2 23 7
      vertex 6.199999999999999 28 7
      vertex 16.2 28 7
    endloop
  endfacet
  facet normal 0.4067366430758007 0.9135454576426005 0
    outer loop
      vertex 9.2 6.535898384862246 4.618802153517007
      vertex 9.96393202250021 6.195773934819385 0
      vertex 9.2 6.535898384862246 0
    endloop
  endfacet
  facet normal 0.5877852522924728 0.8090169943749476 0
    outer loop
      vertex 8.523477574564566 7.027420698090423 4.902582693372002
      vertex 9.2 6.535898384862246 0
      vertex 8.523477574564566 7.027420698090423 0
    endloop
  endfacet
  facet normal 0.5877852522924728 0.8090169943749476 3.7871801365423925e-18
    outer loop
      vertex 8.523477574564566 7.027420698090423 4.902582693372002
      vertex 9.2 6.535898384862246 4.618802153517007
      vertex 9.2 6.535898384862246 0
    endloop
  endfacet
  facet normal 0.40673664307580076 0.9135454576426006 -3.650897346055418e-18
    outer loop
      vertex 9.2 6.535898384862246 4.618802153517007
      vertex 9.96393202250021 6.195773934819385 4.422431210726788
      vertex 9.96393202250021 6.195773934819385 0
    endloop
  endfacet
  facet normal 0.20791169081775862 0.9781476007338058 0
    outer loop
      vertex 9.96393202250021 6.195773934819385 4.422431210726788
      vertex 10.781886146929386 6.021912418526907 0
      vertex 9.96393202250021 6.195773934819385 0
    endloop
  endfacet
  facet normal 0 1 0
    outer loop
      vertex 10.781886146929386 6.021912418526907 4.322052217493608
      vertex 11.618113853070613 6.021912418526907 0
      vertex 10.781886146929386 6.021912418526907 0
    endloop
  endfacet
  facet normal 0.2079116908177586 0.9781476007338057 2.8768268837096786e-18
    outer loop
      vertex 9.96393202250021 6.195773934819385 4.422431210726788
      vertex 10.781886146929386 6.021912418526907 4.322052217493608
      vertex 10.781886146929386 6.021912418526907 0
    endloop
  endfacet
  facet normal 0.8660254037844392 0.49999999999999933 0
    outer loop
      vertex 7.545818169429596 8.3730534276968 5.6794841120406145
      vertex 7.9639320225002095 7.6488589908301075 0
      vertex 7.545818169429596 8.3730534276968 0
    endloop
  endfacet
  facet normal 0.7431448254773942 0.6691306063588581 0
    outer loop
      vertex 7.9639320225002095 7.6488589908301075 5.26137025897
      vertex 8.523477574564566 7.027420698090423 0
      vertex 7.9639320225002095 7.6488589908301075 0
    endloop
  endfacet
  facet normal 0.9510565162951533 0.3090169943749481 0
    outer loop
      vertex 7.2874095970647765 9.168353236728963 6.138650670871793
      vertex 7.545818169429596 8.3730534276968 0
      vertex 7.2874095970647765 9.168353236728963 0
    endloop
  endfacet
  facet normal 0.9945218953682734 0.1045284632676533 0
    outer loop
      vertex 7.199999999999999 10 6.618802153517007
      vertex 7.2874095970647765 9.168353236728963 0
      vertex 7.199999999999999 10 0
    endloop
  endfacet
  facet normal 0.9510565162951533 0.3090169943749481 -1.162937268441278e-19
    outer loop
      vertex 7.2874095970647765 9.168353236728963 6.138650670871793
      vertex 7.545818169429596 8.3730534276968 5.6794841120406145
      vertex 7.545818169429596 8.3730534276968 0
    endloop
  endfacet
  facet normal 0.7431448254773942 0.6691306063588582 -1.124809636737705e-18
    outer loop
      vertex 7.9639320225002095 7.6488589908301075 5.26137025897
      vertex 8.523477574564566 7.027420698090423 4.902582693372002
      vertex 8.523477574564566 7.027420698090423 0
    endloop
  endfacet
  facet normal 0.866025403784439 0.4999999999999993 -6.497037775502631e-19
    outer loop
      vertex 7.545818169429596 8.3730534276968 5.6794841120406145
      vertex 7.9639320225002095 7.6488589908301075 5.26137025897
      vertex 7.9639320225002095 7.6488589908301075 0
    endloop
  endfacet
  facet normal 0.9945218953682733 0.1045284632676533 0
    outer loop
      vertex 7.2874095970647765 9.168353236728963 6.138650670871793
      vertex 7.2874095970647765 9.168353236728963 0
      vertex 7.199999999999999 10 6.618802153517007
    endloop
  endfacet
  facet normal 0.9945218953682734 -0.1045284632676533 0
    outer loop
      vertex 7.199999999999999 10 6.618802153517007
      vertex 7.199999999999999 10 0
      vertex 7.2874095970647765 10.831646763271037 7.098953636162221
    endloop
  endfacet
  facet normal 0.9945218953682734 -0.1045284632676533 0
    outer loop
      vertex 7.2874095970647765 10.831646763271037 7.098953636162221
      vertex 7.199999999999999 10 0
      vertex 7.2874095970647765 10.831646763271037 0
    endloop
  endfacet
  facet normal 0.9510565162951533 -0.30901699437494806 0
    outer loop
      vertex 7.545818169429596 11.6269465723032 7.558120194993398
      vertex 7.2874095970647765 10.831646763271037 0
      vertex 7.545818169429596 11.6269465723032 0
    endloop
  endfacet
  facet normal 0.8660254037844393 -0.4999999999999988 0
    outer loop
      vertex 7.9639320225002095 12.351141009169893 7.976234048064013
      vertex 7.545818169429596 11.6269465723032 0
      vertex 7.9639320225002095 12.351141009169893 0
    endloop
  endfacet
  facet normal 0.7431448254773934 -0.6691306063588593 0
    outer loop
      vertex 8.523477574564566 12.972579301909576 8.335021613662011
      vertex 7.9639320225002095 12.351141009169893 0
      vertex 8.523477574564566 12.972579301909576 0
    endloop
  endfacet
  facet normal 0.9510565162951534 -0.30901699437494806 0
    outer loop
      vertex 7.2874095970647765 10.831646763271037 7.098953636162221
      vertex 7.2874095970647765 10.831646763271037 0
      vertex 7.545818169429596 11.6269465723032 7.558120194993398
    endloop
  endfacet
  facet normal 0.8660254037844393 -0.4999999999999988 0
    outer loop
      vertex 7.545818169429596 11.6269465723032 7.558120194993398
      vertex 7.545818169429596 11.6269465723032 0
      vertex 7.9639320225002095 12.351141009169893 7.976234048064013
    endloop
  endfacet
  facet normal 0.7431448254773932 -0.6691306063588593 0
    outer loop
      vertex 7.9639320225002095 12.351141009169893 7.976234048064013
      vertex 7.9639320225002095 12.351141009169893 0
      vertex 8.523477574564566 12.972579301909576 8.335021613662011
    endloop
  endfacet
  facet normal 0.5877852522924729 -0.8090169943749477 0
    outer loop
      vertex 9.2 13.464101615137753 8.618802153517008
      vertex 8.523477574564566 12.972579301909576 0
      vertex 9.2 13.464101615137753 0
    endloop
  endfacet
  facet normal 0.40673664307580165 -0.9135454576426003 0
    outer loop
      vertex 9.96393202250021 13.804226065180615 8.815173096307225
      vertex 9.2 13.464101615137753 0
      vertex 9.96393202250021 13.804226065180615 0
    endloop
  endfacet
  facet normal 0.20791169081775965 -0.9781476007338057 0
    outer loop
      vertex 10.781886146929386 13.978087581473094 8.915552089540403
      vertex 9.96393202250021 13.804226065180615 0
      vertex 10.781886146929386 13.978087581473094 0
    endloop
  endfacet
  facet normal 0.5877852522924729 -0.8090169943749476 0
    outer loop
      vertex 8.523477574564566 12.972579301909576 8.335021613662011
      vertex 8.523477574564566 12.972579301909576 0
      vertex 9.2 13.464101615137753 8.618802153517008
    endloop
  endfacet
  facet normal 0.40673664307580165 -0.9135454576426003 0
    outer loop
      vertex 9.2 13.464101615137753 8.618802153517008
      vertex 9.2 13.464101615137753 0
      vertex 9.96393202250021 13.804226065180615 8.815173096307225
    endloop
  endfacet
  facet normal 0.20791169081775962 -0.9781476007338056 0
    outer loop
      vertex 9.96393202250021 13.804226065180615 8.815173096307225
      vertex 9.96393202250021 13.804226065180615 0
      vertex 10.781886146929386 13.978087581473094 8.915552089540403
    endloop
  endfacet
  facet normal 0 -1 0
    outer loop
      vertex 10.781886146929386 13.978087581473094 8.915552089540403
      vertex 10.781886146929386 13.978087581473094 0
      vertex 11.618113853070613 13.978087581473094 8.915552089540405
    endloop
  endfacet
  facet normal -0.20791169081775865 0.9781476007338058 0
    outer loop
      vertex 11.618113853070613 6.021912418526907 4.322052217493609
      vertex 12.436067977499789 6.195773934819385 0
      vertex 11.618113853070613 6.021912418526907 0
    endloop
  endfacet
  facet normal 0 1 0
    outer loop
      vertex 10.781886146929386 6.021912418526907 4.322052217493608
      vertex 11.618113853070613 6.021912418526907 4.322052217493609
      vertex 11.618113853070613 6.021912418526907 0
    endloop
  endfacet
  facet normal -0.20791169081775862 0.9781476007338057 -2.8115295455413667e-18
    outer loop
      vertex 11.618113853070613 6.021912418526907 4.322052217493609
      vertex 12.436067977499789 6.195773934819385 4.4224312107267885
      vertex 12.436067977499789 6.195773934819385 0
    endloop
  endfacet
  facet normal -0.40673664307580076 0.9135454576426008 0
    outer loop
      vertex 12.436067977499789 6.195773934819385 4.4224312107267885
      vertex 13.2 6.535898384862246 0
      vertex 12.436067977499789 6.195773934819385 0
    endloop
  endfacet
  facet normal -0.5877852522924728 0.8090169943749476 0
    outer loop
      vertex 13.2 6.535898384862246 4.618802153517007
      vertex 13.876522425435432 7.027420698090423 0
      vertex 13.2 6.535898384862246 0
    endloop
  endfacet
  facet normal -0.4067366430758007 0.9135454576426005 3.495677414556663e-18
    outer loop
      vertex 12.436067977499789 6.195773934819385 4.4224312107267885
      vertex 13.2 6.535898384862246 4.618802153517007
      vertex 13.2 6.535898384862246 0
    endloop
  endfacet
  facet normal -0.5877852522924728 0.8090169943749476 -3.5679634316147874e-18
    outer loop
      vertex 13.2 6.535898384862246 4.618802153517007
      vertex 13.876522425435432 7.027420698090423 4.902582693372002
      vertex 13.876522425435432 7.027420698090423 0
    endloop
  endfacet
  facet normal 0 -1 0
    outer loop
      vertex 11.618113853070613 13.978087581473094 8.915552089540405
      vertex 10.781886146929386 13.978087581473094 0
      vertex 11.618113853070613 13.978087581473094 0
    endloop
  endfacet
  facet normal -0.20791169081775962 -0.9781476007338056 0
    outer loop
      vertex 12.436067977499789 13.804226065180615 8.815173096307227
      vertex 11.618113853070613 13.978087581473094 0
      vertex 12.436067977499789 13.804226065180615 0
    endloop
  endfacet
  facet normal -0.4067366430758016 -0.9135454576426002 0
    outer loop
      vertex 13.2 13.464101615137753 8.618802153517006
      vertex 12.436067977499789 13.804226065180615 0
      vertex 13.2 13.464101615137753 0
    endloop
  endfacet
  facet normal -0.5877852522924729 -0.8090169943749476 0
    outer loop
      vertex 13.876522425435432 12.972579301909576 8.33502161366201
      vertex 13.2 13.464101615137753 0
      vertex 13.876522425435432 12.972579301909576 0
    endloop
  endfacet
  facet normal -0.20791169081775962 -0.9781476007338055 0
    outer loop
      vertex 11.618113853070613 13.978087581473094 8.915552089540405
      vertex 11.618113853070613 13.978087581473094 0
      vertex 12.436067977499789 13.804226065180615 8.815173096307227
    endloop
  endfacet
  facet normal -0.4067366430758016 -0.9135454576426002 0
    outer loop
      vertex 12.436067977499789 13.804226065180615 8.815173096307227
      vertex 12.436067977499789 13.804226065180615 0
      vertex 13.2 13.464101615137753 8.618802153517006
    endloop
  endfacet
  facet normal -0.5877852522924729 -0.8090169943749476 0
    outer loop
      vertex 13.2 13.464101615137753 8.618802153517006
      vertex 13.2 13.464101615137753 0
      vertex 13.876522425435432 12.972579301909576 8.33502161366201
    endloop
  endfacet
  facet normal -0.7431448254773942 0.6691306063588582 0
    outer loop
      vertex 13.876522425435432 7.027420698090423 4.902582693372002
      vertex 14.436067977499789 7.6488589908301075 0
      vertex 13.876522425435432 7.027420698090423 0
    endloop
  endfacet
  facet normal -0.866025403784439 0.4999999999999993 0
    outer loop
      vertex 14.436067977499789 7.6488589908301075 5.26137025897
      vertex 14.854181830570402 8.3730534276968 0
      vertex 14.436067977499789 7.6488589908301075 0
    endloop
  endfacet
  facet normal -0.9510565162951533 0.30901699437494806 0
    outer loop
      vertex 14.854181830570402 8.3730534276968 5.679484112040615
      vertex 15.112590402935222 9.168353236728963 0
      vertex 14.854181830570402 8.3730534276968 0
    endloop
  endfacet
  facet normal -0.9945218953682733 0.1045284632676533 0
    outer loop
      vertex 15.112590402935222 9.168353236728963 6.138650670871793
      vertex 15.2 10 0
      vertex 15.112590402935222 9.168353236728963 0
    endloop
  endfacet
  facet normal -0.9945218953682734 -0.10452846326765333 0
    outer loop
      vertex 15.2 10 6.618802153517008
      vertex 15.112590402935222 10.831646763271037 0
      vertex 15.2 10 0
    endloop
  endfacet
  facet normal -0.7431448254773942 0.6691306063588581 1.0481057190390302e-18
    outer loop
      vertex 13.876522425435432 7.027420698090423 4.902582693372002
      vertex 14.436067977499789 7.6488589908301075 5.26137025897
      vertex 14.436067977499789 7.6488589908301075 0
    endloop
  endfacet
  facet normal -0.866025403784439 0.4999999999999993 6.018737027710819e-19
    outer loop
      vertex 14.436067977499789 7.6488589908301075 5.26137025897
      vertex 14.854181830570402 8.3730534276968 5.679484112040615
      vertex 14.854181830570402 8.3730534276968 0
    endloop
  endfacet
  facet normal -0.9510565162951533 0.3090169943749481 1.0759504154150123e-19
    outer loop
      vertex 14.854181830570402 8.3730534276968 5.679484112040615
      vertex 15.112590402935222 9.168353236728963 6.138650670871793
      vertex 15.112590402935222 9.168353236728963 0
    endloop
  endfacet
  facet normal -0.9945218953682734 0.10452846326765333 -6.863474175832381e-19
    outer loop
      vertex 15.112590402935222 9.168353236728963 6.138650670871793
      vertex 15.2 10 6.618802153517008
      vertex 15.2 10 0
    endloop
  endfacet
  facet normal -0.9510565162951533 -0.3090169943749481 0
    outer loop
      vertex 15.112590402935222 10.831646763271037 7.0989536361622205
      vertex 14.854181830570402 11.6269465723032 0
      vertex 15.112590402935222 10.831646763271037 0
    endloop
  endfacet
  facet normal -0.8660254037844395 -0.4999999999999988 0
    outer loop
      vertex 14.854181830570402 11.6269465723032 7.5581201949934
      vertex 14.436067977499789 12.351141009169893 0
      vertex 14.854181830570402 11.6269465723032 0
    endloop
  endfacet
  facet normal -0.7431448254773932 -0.6691306063588593 0
    outer loop
      vertex 14.436067977499789 12.351141009169893 7.976234048064013
      vertex 13.876522425435432 12.972579301909576 0
      vertex 14.436067977499789 12.351141009169893 0
    endloop
  endfacet
  facet normal -0.9945218953682734 -0.10452846326765333 6.3992498027028445e-19
    outer loop
      vertex 15.2 10 6.618802153517008
      vertex 15.112590402935222 10.831646763271037 7.0989536361622205
      vertex 15.112590402935222 10.831646763271037 0
    endloop
  endfacet
  facet normal -0.8660254037844393 -0.4999999999999988 0
    outer loop
      vertex 14.436067977499789 12.351141009169893 7.976234048064013
      vertex 14.436067977499789 12.351141009169893 0
      vertex 14.854181830570402 11.6269465723032 7.5581201949934
    endloop
  endfacet
  facet normal -0.9510565162951533 -0.3090169943749481 0
    outer loop
      vertex 14.854181830570402 11.6269465723032 7.5581201949934
      vertex 14.854181830570402 11.6269465723032 0
      vertex 15.112590402935222 10.831646763271037 7.0989536361622205
    endloop
  endfacet
  facet normal -0.7431448254773932 -0.6691306063588592 0
    outer loop
      vertex 13.876522425435432 12.972579301909576 8.33502161366201
      vertex 13.876522425435432 12.972579301909576 0
      vertex 14.436067977499789 12.351141009169893 7.976234048064013
    endloop
  endfacet
endsolid OpenSCAD_Model
