solid OpenSCAD_Model
  facet normal 0 0 -1
    outer loop
      vertex 0.5857864376269049 0.5857864376269049 0
      vertex 0.3819660112501051 0.8244294954150537 0
      vertex 3.6999999999999993 8.3 0
    endloop
  endfacet
  facet normal 0 0 -1
    outer loop
      vertex 0.5857864376269049 0.5857864376269049 0
      vertex 3.6999999999999993 8.3 0
      vertex 0.8244294954150537 0.3819660112501051 0
    endloop
  endfacet
  facet normal 0 0 -1
    outer loop
      vertex 1.0920190005209065 0.2179869516232642 0
      vertex 3.6999999999999993 8.3 0
      vertex 1.381966011250105 0.09788696740969294 0
    endloop
  endfacet
  facet normal 0 0 -1
    outer loop
      vertex 0.8244294954150537 0.3819660112501051 0
      vertex 3.6999999999999993 8.3 0
      vertex 1.0920190005209065 0.2179869516232642 0
    endloop
  endfacet
  facet normal 0 0 -1
    outer loop
      vertex 1.381966011250105 0.09788696740969294 0
      vertex 3.6999999999999993 8.3 0
      vertex 1.6871310699195383 0.02462331880972446 0
    endloop
  endfacet
  facet normal 0 0 -1
    outer loop
      vertex 1.6871310699195383 0.02462331880972446 0
      vertex 3.6999999999999993 8.3 0
      vertex 2 0 0
    endloop
  endfacet
  facet normal 0 0 -1
    outer loop
      vertex 2 0 0
      vertex 7.199999999999999 4 0
      vertex 7.199999999999999 0 0
    endloop
  endfacet
  facet normal -0.3826834323650895 -0.9238795325112868 -2.0443208861509464e-18
    outer loop
      vertex 1.0920190005209065 0.2179869516232642 0
      vertex 1.381966011250105 0.09788696740969294 0
      vertex 1.381966011250105 0.09788696740969294 4
    endloop
  endfacet
  facet normal -0.23344536385590584 -0.9723699203976764 0
    outer loop
      vertex 1.381966011250105 0.09788696740969294 0
      vertex 1.6871310699195383 0.02462331880972446 0
      vertex 1.381966011250105 0.09788696740969294 4
    endloop
  endfacet
  facet normal -0.07845909572784468 -0.996917333733128 0
    outer loop
      vertex 1.6871310699195383 0.02462331880972446 0
      vertex 2 0 0
      vertex 1.6871310699195383 0.02462331880972446 4
    endloop
  endfacet
  facet normal -0.8526401643540923 -0.5224985647159488 -6.791546740002219e-19
    outer loop
      vertex 0.2179869516232642 1.0920190005209065 0
      vertex 0.3819660112501051 0.8244294954150537 0
      vertex 0.3819660112501051 0.8244294954150537 4
    endloop
  endfacet
  facet normal -0.760405965600031 -0.6494480483301834 1.8696925518597606e-18
    outer loop
      vertex 0.5857864376269049 0.5857864376269049 0
      vertex 0.3819660112501051 0.8244294954150537 4
      vertex 0.3819660112501051 0.8244294954150537 0
    endloop
  endfacet
  facet normal -0.9238795325112868 -0.3826834323650895 0
    outer loop
      vertex 0.2179869516232642 1.0920190005209065 0
      vertex 0.2179869516232642 1.0920190005209065 4
      vertex 0.09788696740969294 1.381966011250105 0
    endloop
  endfacet
  facet normal -0.9723699203976764 -0.23344536385590584 1.0339695475321491e-18
    outer loop
      vertex 0.09788696740969294 1.381966011250105 0
      vertex 0.02462331880972446 1.6871310699195383 4
      vertex 0.02462331880972446 1.6871310699195383 0
    endloop
  endfacet
  facet normal -0.6494480483301834 -0.760405965600031 1.8696925518597606e-18
    outer loop
      vertex 0.5857864376269049 0.5857864376269049 0
      vertex 0.8244294954150537 0.3819660112501051 0
      vertex 0.8244294954150537 0.3819660112501051 4
    endloop
  endfacet
  facet normal -0.5224985647159488 -0.8526401643540923 0
    outer loop
      vertex 0.8244294954150537 0.3819660112501051 0
      vertex 1.0920190005209065 0.2179869516232642 0
      vertex 0.8244294954150537 0.3819660112501051 4
    endloop
  endfacet
  facet normal -0.996917333733128 -0.07845909572784468 -2.9277212408575386e-19
    outer loop
      vertex 0.02462331880972446 1.6871310699195383 0
      vertex 0 2 4
      vertex 0 2 0
    endloop
  endfacet
  facet normal 0 -1 0
    outer loop
      vertex 2 0 0
      vertex 7.199999999999999 0 0
      vertex 7.199999999999999 0 4
    endloop
  endfacet
  facet normal 0 0 -1
    outer loop
      vertex 0.2179869516232642 1.0920190005209065 0
      vertex 0.09788696740969294 1.381966011250105 0
      vertex 3.6999999999999993 8.3 0
    endloop
  endfacet
  facet normal 0 0 -1
    outer loop
      vertex 0.09788696740969294 1.381966011250105 0
      vertex 0.02462331880972446 1.6871310699195383 0
      vertex 3.6999999999999993 8.3 0
    endloop
  endfacet
  facet normal 0 0 -1
    outer loop
      vertex 0.02462331880972446 1.6871310699195383 0
      vertex 0 2 0
      vertex 3.6999999999999993 8.3 0
    endloop
  endfacet
  facet normal 0 0 -1
    outer loop
      vertex 0.2179869516232642 1.0920190005209065 0
      vertex 3.6999999999999993 8.3 0
      vertex 0.3819660112501051 0.8244294954150537 0
    endloop
  endfacet
  facet normal 0 0 -1
    outer loop
      vertex 2 0 0
      vertex 3.6999999999999993 8.3 0
      vertex 7.199999999999999 4 0
    endloop
  endfacet
  facet normal -1 0 0
    outer loop
      vertex 0 2 0
      vertex 0 2 4
      vertex 0 19.6 0
    endloop
  endfacet
  facet normal 0 0 -1
    outer loop
      vertex 3.6999999999999993 8.3 0
      vertex 18.7 8.3 0
      vertex 7.199999999999999 4 0
    endloop
  endfacet
  facet normal -0.3826834323650895 -0.9238795325112868 0
    outer loop
      vertex 1.0920190005209065 0.2179869516232642 0
      vertex 1.381966011250105 0.09788696740969294 4
      vertex 1.0920190005209065 0.2179869516232642 4
    endloop
  endfacet
  facet normal -0.23344536385590584 -0.9723699203976764 0
    outer loop
      vertex 1.6871310699195383 0.02462331880972446 0
      vertex 1.6871310699195383 0.02462331880972446 4
      vertex 1.381966011250105 0.09788696740969294 4
    endloop
  endfacet
  facet normal -0.07845909572784468 -0.996917333733128 0
    outer loop
      vertex 2 0 0
      vertex 2 0 4
      vertex 1.6871310699195383 0.02462331880972446 4
    endloop
  endfacet
  facet normal -0.8526401643540923 -0.5224985647159488 0
    outer loop
      vertex 0.2179869516232642 1.0920190005209065 0
      vertex 0.3819660112501051 0.8244294954150537 4
      vertex 0.2179869516232642 1.0920190005209065 4
    endloop
  endfacet
  facet normal -0.6494480483301834 -0.760405965600031 0
    outer loop
      vertex 0.5857864376269049 0.5857864376269049 0
      vertex 0.8244294954150537 0.3819660112501051 4
      vertex 0.5857864376269049 0.5857864376269049 4
    endloop
  endfacet
  facet normal -0.760405965600031 -0.6494480483301834 0
    outer loop
      vertex 0.5857864376269049 0.5857864376269049 0
      vertex 0.5857864376269049 0.5857864376269049 4
      vertex 0.3819660112501051 0.8244294954150537 4
    endloop
  endfacet
  facet normal -0.9238795325112868 -0.3826834323650895 0
    outer loop
      vertex 0.09788696740969294 1.381966011250105 0
      vertex 0.2179869516232642 1.0920190005209065 4
      vertex 0.09788696740969294 1.381966011250105 4
    endloop
  endfacet
  facet normal -0.9723699203976764 -0.23344536385590584 0
    outer loop
      vertex 0.09788696740969294 1.381966011250105 0
      vertex 0.09788696740969294 1.381966011250105 4
      vertex 0.02462331880972446 1.6871310699195383 4
    endloop
  endfacet
  facet normal -0.5224985647159488 -0.8526401643540923 0
    outer loop
      vertex 1.0920190005209065 0.2179869516232642 0
      vertex 1.0920190005209065 0.2179869516232642 4
      vertex 0.8244294954150537 0.3819660112501051 4
    endloop
  endfacet
  facet normal -0.996917333733128 -0.07845909572784468 0
    outer loop
      vertex 0.02462331880972446 1.6871310699195383 0
      vertex 0.02462331880972446 1.6871310699195383 4
      vertex 0 2 4
    endloop
  endfacet
  facet normal 0 -1 0
    outer loop
      vertex 2 0 0
      vertex 7.199999999999999 0 4
      vertex 2 0 4
    endloop
  endfacet
  facet normal 0 0 1
    outer loop
      vertex 0.5857864376269049 0.5857864376269049 4
      vertex 4.3999999999999995 6.000000000000001 4
      vertex 0.3819660112501051 0.8244294954150537 4
    endloop
  endfacet
  facet normal 0 0 1
    outer loop
      vertex 0.5857864376269049 0.5857864376269049 4
      vertex 0.8244294954150537 0.3819660112501051 4
      vertex 4.3999999999999995 6.000000000000001 4
    endloop
  endfacet
  facet normal 0 0 1
    outer loop
      vertex 0.2179869516232642 1.0920190005209065 4
      vertex 4.3999999999999995 6.000000000000001 4
      vertex 0.09788696740969294 1.381966011250105 4
    endloop
  endfacet
  facet normal 0 0 1
    outer loop
      vertex 0.2179869516232642 1.0920190005209065 4
      vertex 0.3819660112501051 0.8244294954150537 4
      vertex 4.3999999999999995 6.000000000000001 4
    endloop
  endfacet
  facet normal 0 0 1
    outer loop
      vertex 0.09788696740969294 1.381966011250105 4
      vertex 4.3999999999999995 6.000000000000001 4
      vertex 0.02462331880972446 1.6871310699195383 4
    endloop
  endfacet
  facet normal 0 0 1
    outer loop
      vertex 0.02462331880972446 1.6871310699195383 4
      vertex 4.3999999999999995 6.000000000000001 4
      vertex 0 2 4
    endloop
  endfacet
  facet normal 0 0 1
    outer loop
      vertex 1.0920190005209065 0.2179869516232642 4
      vertex 1.381966011250105 0.09788696740969294 4
      vertex 4.3999999999999995 6.000000000000001 4
    endloop
  endfacet
  facet normal 0 0 1
    outer loop
      vertex 0.8244294954150537 0.3819660112501051 4
      vertex 1.0920190005209065 0.2179869516232642 4
      vertex 4.3999999999999995 6.000000000000001 4
    endloop
  endfacet
  facet normal 0 0 1
    outer loop
      vertex 1.381966011250105 0.09788696740969294 4
      vertex 1.6871310699195383 0.02462331880972446 4
      vertex 4.3999999999999995 6.000000000000001 4
    endloop
  endfacet
  facet normal 0 0 1
    outer loop
      vertex 1.6871310699195383 0.02462331880972446 4
      vertex 2 0 4
      vertex 4.3999999999999995 6.000000000000001 4
    endloop
  endfacet
  facet normal 0 0 1
    outer loop
      vertex 2 0 4
      vertex 7.199999999999999 0 4
      vertex 7.199999999999999 4 4
    endloop
  endfacet
  facet normal 0 0 1
    outer loop
      vertex 0 2 4
      vertex 4.3999999999999995 8.3 4
      vertex 3.6999999999999993 8.3 4
    endloop
  endfacet
  facet normal 0 0 1
    outer loop
      vertex 0 2 4
      vertex 4.3999999999999995 6.000000000000001 4
      vertex 4.3999999999999995 8.3 4
    endloop
  endfacet
  facet normal 0 0 1
    outer loop
      vertex 2 0 4
      vertex 7.199999999999999 4 4
      vertex 4.3999999999999995 6.000000000000001 4
    endloop
  endfacet
  facet normal 0 0 1
    outer loop
      vertex 4.3999999999999995 6.000000000000001 4
      vertex 7.199999999999999 4 4
      vertex 15.2 4 4
    endloop
  endfacet
  facet normal 0 0 -1
    outer loop
      vertex 0 2 0
      vertex 0 19.6 0
      vertex 3.6999999999999993 8.3 0
    endloop
  endfacet
  facet normal 0 0 -1
    outer loop
      vertex 3.6999999999999993 8.3 0
      vertex 0 19.6 0
      vertex 3.6999999999999993 17.3 0
    endloop
  endfacet
  facet normal -0.996917333733128 0.07845909572784451 0
    outer loop
      vertex 0 19.6 0
      vertex 0 19.6 4
      vertex 0.02462331880972446 19.912868930080464 0
    endloop
  endfacet
  facet normal -0.9723699203976761 0.2334453638559076 1.3340984597828174e-19
    outer loop
      vertex 0.02462331880972446 19.912868930080464 0
      vertex 0.09788696740969294 20.218033988749895 4
      vertex 0.09788696740969294 20.218033988749895 0
    endloop
  endfacet
  facet normal -0.9238795325112877 0.3826834323650875 0
    outer loop
      vertex 0.09788696740969294 20.218033988749895 0
      vertex 0.09788696740969294 20.218033988749895 4
      vertex 0.2179869516232642 20.507980999479095 0
    endloop
  endfacet
  facet normal -0.8526401643540926 0.5224985647159481 0
    outer loop
      vertex 0.2179869516232642 20.507980999479095 0
      vertex 0.2179869516232642 20.507980999479095 4
      vertex 0.3819660112501051 20.775570504584948 0
    endloop
  endfacet
  facet normal -0.7604059656000314 0.6494480483301831 1.017052599727601e-18
    outer loop
      vertex 0.3819660112501051 20.775570504584948 0
      vertex 0.5857864376269049 21.014213562373097 4
      vertex 0.5857864376269049 21.014213562373097 0
    endloop
  endfacet
  facet normal -0.649448048330179 0.7604059656000349 -1.882717175567663e-18
    outer loop
      vertex 0.5857864376269049 21.014213562373097 0
      vertex 0.8244294954150537 21.218033988749895 4
      vertex 0.8244294954150537 21.218033988749895 0
    endloop
  endfacet
  facet normal -0.5224985647159545 0.8526401643540887 1.7376986172201206e-18
    outer loop
      vertex 0.8244294954150537 21.218033988749895 0
      vertex 1.0920190005209065 21.382013048376738 4
      vertex 1.0920190005209065 21.382013048376738 0
    endloop
  endfacet
  facet normal -0.3826834323650883 0.9238795325112873 0
    outer loop
      vertex 1.0920190005209065 21.382013048376738 0
      vertex 1.0920190005209065 21.382013048376738 4
      vertex 1.381966011250105 21.50211303259031 0
    endloop
  endfacet
  facet normal -0.23344536385590786 0.9723699203976761 6.013104630115536e-19
    outer loop
      vertex 1.381966011250105 21.50211303259031 0
      vertex 1.6871310699195383 21.575376681190278 4
      vertex 1.6871310699195383 21.575376681190278 0
    endloop
  endfacet
  facet normal -0.07845909572784186 0.9969173337331282 0
    outer loop
      vertex 1.6871310699195383 21.575376681190278 0
      vertex 1.6871310699195383 21.575376681190278 4
      vertex 2 21.6 0
    endloop
  endfacet
  facet normal 0 0 -1
    outer loop
      vertex 0 19.6 0
      vertex 0.02462331880972446 19.912868930080464 0
      vertex 22.302113032590306 20.218033988749895 0
    endloop
  endfacet
  facet normal 0 0 -1
    outer loop
      vertex 0.02462331880972446 19.912868930080464 0
      vertex 0.09788696740969294 20.218033988749895 0
      vertex 22.302113032590306 20.218033988749895 0
    endloop
  endfacet
  facet normal 0 0 -1
    outer loop
      vertex 0.09788696740969294 20.218033988749895 0
      vertex 0.2179869516232642 20.507980999479095 0
      vertex 22.302113032590306 20.218033988749895 0
    endloop
  endfacet
  facet normal 0 0 -1
    outer loop
      vertex 0.2179869516232642 20.507980999479095 0
      vertex 0.3819660112501051 20.775570504584948 0
      vertex 22.302113032590306 20.218033988749895 0
    endloop
  endfacet
  facet normal 0 0 -1
    outer loop
      vertex 0.3819660112501051 20.775570504584948 0
      vertex 0.5857864376269049 21.014213562373097 0
      vertex 22.302113032590306 20.218033988749895 0
    endloop
  endfacet
  facet normal 0 0 -1
    outer loop
      vertex 0.5857864376269049 21.014213562373097 0
      vertex 0.8244294954150537 21.218033988749895 0
      vertex 22.302113032590306 20.218033988749895 0
    endloop
  endfacet
  facet normal 0 0 -1
    outer loop
      vertex 0.8244294954150537 21.218033988749895 0
      vertex 1.0920190005209065 21.382013048376738 0
      vertex 22.302113032590306 20.218033988749895 0
    endloop
  endfacet
  facet normal 0 0 -1
    outer loop
      vertex 1.0920190005209065 21.382013048376738 0
      vertex 1.381966011250105 21.50211303259031 0
      vertex 22.302113032590306 20.218033988749895 0
    endloop
  endfacet
  facet normal 0 0 -1
    outer loop
      vertex 0 19.6 0
      vertex 22.302113032590306 20.218033988749895 0
      vertex 3.6999999999999993 17.3 0
    endloop
  endfacet
  facet normal 0 0 -1
    outer loop
      vertex 1.381966011250105 21.50211303259031 0
      vertex 1.6871310699195383 21.575376681190278 0
      vertex 22.302113032590306 20.218033988749895 0
    endloop
  endfacet
  facet normal 0 0 -1
    outer loop
      vertex 1.6871310699195383 21.575376681190278 0
      vertex 2 21.6 0
      vertex 22.302113032590306 20.218033988749895 0
    endloop
  endfacet
  facet normal 0 1 0
    outer loop
      vertex 2 21.6 0
      vertex 2 21.6 4
      vertex 20.4 21.6 0
    endloop
  endfacet
  facet normal -1 0 0
    outer loop
      vertex 0 2 4
      vertex 0 19.6 4
      vertex 0 19.6 0
    endloop
  endfacet
  facet normal 0 0 1
    outer loop
      vertex 0 2 4
      vertex 3.6999999999999993 8.3 4
      vertex 0 19.6 4
    endloop
  endfacet
  facet normal 0 0 1
    outer loop
      vertex 3.6999999999999993 8.3 4
      vertex 3.6999999999999993 17.3 4
      vertex 0 19.6 4
    endloop
  endfacet
  facet normal -0.996917333733128 0.07845909572784451 0
    outer loop
      vertex 0.02462331880972446 19.912868930080464 0
      vertex 0 19.6 4
      vertex 0.02462331880972446 19.912868930080464 4
    endloop
  endfacet
  facet normal -0.9723699203976761 0.2334453638559076 0
    outer loop
      vertex 0.02462331880972446 19.912868930080464 0
      vertex 0.02462331880972446 19.912868930080464 4
      vertex 0.09788696740969294 20.218033988749895 4
    endloop
  endfacet
  facet normal -0.9238795325112877 0.3826834323650875 0
    outer loop
      vertex 0.2179869516232642 20.507980999479095 0
      vertex 0.09788696740969294 20.218033988749895 4
      vertex 0.2179869516232642 20.507980999479095 4
    endloop
  endfacet
  facet normal -0.8526401643540926 0.5224985647159481 0
    outer loop
      vertex 0.3819660112501051 20.775570504584948 0
      vertex 0.2179869516232642 20.507980999479095 4
      vertex 0.3819660112501051 20.775570504584948 4
    endloop
  endfacet
  facet normal -0.7604059656000314 0.6494480483301831 0
    outer loop
      vertex 0.3819660112501051 20.775570504584948 0
      vertex 0.3819660112501051 20.775570504584948 4
      vertex 0.5857864376269049 21.014213562373097 4
    endloop
  endfacet
  facet normal -0.649448048330179 0.7604059656000349 0
    outer loop
      vertex 0.5857864376269049 21.014213562373097 0
      vertex 0.5857864376269049 21.014213562373097 4
      vertex 0.8244294954150537 21.218033988749895 4
    endloop
  endfacet
  facet normal -0.5224985647159545 0.8526401643540887 0
    outer loop
      vertex 0.8244294954150537 21.218033988749895 0
      vertex 0.8244294954150537 21.218033988749895 4
      vertex 1.0920190005209065 21.382013048376738 4
    endloop
  endfacet
  facet normal -0.3826834323650883 0.9238795325112873 0
    outer loop
      vertex 1.381966011250105 21.50211303259031 0
      vertex 1.0920190005209065 21.382013048376738 4
      vertex 1.381966011250105 21.50211303259031 4
    endloop
  endfacet
  facet normal -0.23344536385590786 0.9723699203976761 0
    outer loop
      vertex 1.381966011250105 21.50211303259031 0
      vertex 1.381966011250105 21.50211303259031 4
      vertex 1.6871310699195383 21.575376681190278 4
    endloop
  endfacet
  facet normal -0.07845909572784186 0.9969173337331282 0
    outer loop
      vertex 2 21.6 0
      vertex 1.6871310699195383 21.575376681190278 4
      vertex 2 21.6 4
    endloop
  endfacet
  facet normal 0 0 1
    outer loop
      vertex 0 19.6 4
      vertex 3.6999999999999993 17.3 4
      vertex 4.3999999999999995 19.6 4
    endloop
  endfacet
  facet normal 0 0 1
    outer loop
      vertex 3.6999999999999993 17.3 4
      vertex 4.3999999999999995 17.3 4
      vertex 4.3999999999999995 19.6 4
    endloop
  endfacet
  facet normal 0 0 1
    outer loop
      vertex 0 19.6 4
      vertex 22.302113032590306 20.218033988749895 4
      vertex 0.02462331880972446 19.912868930080464 4
    endloop
  endfacet
  facet normal 0 0 1
    outer loop
      vertex 0.02462331880972446 19.912868930080464 4
      vertex 22.302113032590306 20.218033988749895 4
      vertex 0.09788696740969294 20.218033988749895 4
    endloop
  endfacet
  facet normal 0 0 1
    outer loop
      vertex 0.09788696740969294 20.218033988749895 4
      vertex 22.302113032590306 20.218033988749895 4
      vertex 0.2179869516232642 20.507980999479095 4
    endloop
  endfacet
  facet normal 0 0 1
    outer loop
      vertex 0.2179869516232642 20.507980999479095 4
      vertex 22.302113032590306 20.218033988749895 4
      vertex 0.3819660112501051 20.775570504584948 4
    endloop
  endfacet
  facet normal 0 0 1
    outer loop
      vertex 0.3819660112501051 20.775570504584948 4
      vertex 22.302113032590306 20.218033988749895 4
      vertex 0.5857864376269049 21.014213562373097 4
    endloop
  endfacet
  facet normal 0 0 1
    outer loop
      vertex 0.5857864376269049 21.014213562373097 4
      vertex 22.302113032590306 20.218033988749895 4
      vertex 0.8244294954150537 21.218033988749895 4
    endloop
  endfacet
  facet normal 0 0 1
    outer loop
      vertex 0.8244294954150537 21.218033988749895 4
      vertex 22.302113032590306 20.218033988749895 4
      vertex 1.0920190005209065 21.382013048376738 4
    endloop
  endfacet
  facet normal 0 0 1
    outer loop
      vertex 1.0920190005209065 21.382013048376738 4
      vertex 22.302113032590306 20.218033988749895 4
      vertex 1.381966011250105 21.50211303259031 4
    endloop
  endfacet
  facet normal 0 0 1
    outer loop
      vertex 0 19.6 4
      vertex 4.3999999999999995 19.6 4
      vertex 22.302113032590306 20.218033988749895 4
    endloop
  endfacet
  facet normal 0 0 1
    outer loop
      vertex 1.381966011250105 21.50211303259031 4
      vertex 22.302113032590306 20.218033988749895 4
      vertex 1.6871310699195383 21.575376681190278 4
    endloop
  endfacet
  facet normal 0 0 1
    outer loop
      vertex 1.6871310699195383 21.575376681190278 4
      vertex 22.302113032590306 20.218033988749895 4
      vertex 2 21.6 4
    endloop
  endfacet
  facet normal 0 0 -1
    outer loop
      vertex 7.199999999999999 4 0
      vertex 18.7 8.3 0
      vertex 15.2 4 0
    endloop
  endfacet
  facet normal 0 0 -1
    outer loop
      vertex 15.2 0 0
      vertex 15.2 4 0
      vertex 20.4 0 0
    endloop
  endfacet
  facet normal 0 -1 0
    outer loop
      vertex 15.2 0 0
      vertex 20.4 0 0
      vertex 20.4 0 4
    endloop
  endfacet
  facet normal 0.07845909572784451 -0.996917333733128 2.3107777087204573e-19
    outer loop
      vertex 20.4 0 0
      vertex 20.71286893008046 0.02462331880972446 0
      vertex 20.71286893008046 0.02462331880972446 4
    endloop
  endfacet
  facet normal 0.2334453638559076 -0.9723699203976761 1.3340984597828174e-19
    outer loop
      vertex 20.71286893008046 0.02462331880972446 0
      vertex 21.01803398874989 0.09788696740969294 0
      vertex 21.01803398874989 0.09788696740969294 4
    endloop
  endfacet
  facet normal 0.3826834323650875 -0.9238795325112877 0
    outer loop
      vertex 21.01803398874989 0.09788696740969294 0
      vertex 21.307980999479092 0.2179869516232642 0
      vertex 21.01803398874989 0.09788696740969294 4
    endloop
  endfacet
  facet normal 0.5224985647159481 -0.8526401643540926 0
    outer loop
      vertex 21.307980999479092 0.2179869516232642 0
      vertex 21.575570504584945 0.3819660112501051 0
      vertex 21.307980999479092 0.2179869516232642 4
    endloop
  endfacet
  facet normal 0.6494480483301831 -0.7604059656000314 1.017052599727601e-18
    outer loop
      vertex 21.575570504584945 0.3819660112501051 0
      vertex 21.814213562373094 0.5857864376269049 0
      vertex 21.814213562373094 0.5857864376269049 4
    endloop
  endfacet
  facet normal 0.7604059656000349 -0.649448048330179 -1.882717175567663e-18
    outer loop
      vertex 21.814213562373094 0.5857864376269049 0
      vertex 22.01803398874989 0.8244294954150537 0
      vertex 22.01803398874989 0.8244294954150537 4
    endloop
  endfacet
  facet normal 0.8526401643540887 -0.5224985647159545 0
    outer loop
      vertex 22.01803398874989 0.8244294954150537 0
      vertex 22.182013048376735 1.0920190005209065 0
      vertex 22.01803398874989 0.8244294954150537 4
    endloop
  endfacet
  facet normal 0.9238795325112873 -0.3826834323650883 0
    outer loop
      vertex 22.182013048376735 1.0920190005209065 0
      vertex 22.302113032590306 1.381966011250105 0
      vertex 22.182013048376735 1.0920190005209065 4
    endloop
  endfacet
  facet normal 0.9723699203976761 -0.23344536385590786 6.013104630115536e-19
    outer loop
      vertex 22.302113032590306 1.381966011250105 0
      vertex 22.375376681190275 1.6871310699195383 0
      vertex 22.375376681190275 1.6871310699195383 4
    endloop
  endfacet
  facet normal 0.9969173337331282 -0.07845909572784186 3.174778649578637e-20
    outer loop
      vertex 22.375376681190275 1.6871310699195383 0
      vertex 22.4 2 0
      vertex 22.4 2 4
    endloop
  endfacet
  facet normal 0 0 -1
    outer loop
      vertex 15.2 4 0
      vertex 18.7 8.3 0
      vertex 20.4 0 0
    endloop
  endfacet
  facet normal 0 0 -1
    outer loop
      vertex 20.4 0 0
      vertex 22.302113032590306 20.218033988749895 0
      vertex 20.71286893008046 0.02462331880972446 0
    endloop
  endfacet
  facet normal 0 0 -1
    outer loop
      vertex 20.71286893008046 0.02462331880972446 0
      vertex 22.302113032590306 20.218033988749895 0
      vertex 21.01803398874989 0.09788696740969294 0
    endloop
  endfacet
  facet normal 0 0 -1
    outer loop
      vertex 21.01803398874989 0.09788696740969294 0
      vertex 22.302113032590306 20.218033988749895 0
      vertex 21.307980999479092 0.2179869516232642 0
    endloop
  endfacet
  facet normal 0 0 -1
    outer loop
      vertex 21.307980999479092 0.2179869516232642 0
      vertex 22.302113032590306 20.218033988749895 0
      vertex 21.575570504584945 0.3819660112501051 0
    endloop
  endfacet
  facet normal 0 0 -1
    outer loop
      vertex 21.575570504584945 0.3819660112501051 0
      vertex 22.302113032590306 20.218033988749895 0
      vertex 21.814213562373094 0.5857864376269049 0
    endloop
  endfacet
  facet normal 0 0 -1
    outer loop
      vertex 21.814213562373094 0.5857864376269049 0
      vertex 22.302113032590306 20.218033988749895 0
      vertex 22.01803398874989 0.8244294954150537 0
    endloop
  endfacet
  facet normal 0 0 -1
    outer loop
      vertex 22.01803398874989 0.8244294954150537 0
      vertex 22.302113032590306 20.218033988749895 0
      vertex 22.182013048376735 1.0920190005209065 0
    endloop
  endfacet
  facet normal 0 0 -1
    outer loop
      vertex 22.182013048376735 1.0920190005209065 0
      vertex 22.302113032590306 20.218033988749895 0
      vertex 22.302113032590306 1.381966011250105 0
    endloop
  endfacet
  facet normal 0 0 -1
    outer loop
      vertex 22.302113032590306 1.381966011250105 0
      vertex 22.302113032590306 20.218033988749895 0
      vertex 22.375376681190275 1.6871310699195383 0
    endloop
  endfacet
  facet normal 0 0 -1
    outer loop
      vertex 22.375376681190275 1.6871310699195383 0
      vertex 22.302113032590306 20.218033988749895 0
      vertex 22.4 2 0
    endloop
  endfacet
  facet normal 1 0 0
    outer loop
      vertex 22.4 2 0
      vertex 22.4 19.6 0
      vertex 22.4 2 4
    endloop
  endfacet
  facet normal 0 0 1
    outer loop
      vertex 4.3999999999999995 6.000000000000001 4
      vertex 15.2 4 4
      vertex 18 6.000000000000001 4
    endloop
  endfacet
  facet normal 0 -1 0
    outer loop
      vertex 15.2 0 0
      vertex 20.4 0 4
      vertex 15.2 0 4
    endloop
  endfacet
  facet normal 0.07845909572784451 -0.996917333733128 0
    outer loop
      vertex 20.4 0 0
      vertex 20.71286893008046 0.02462331880972446 4
      vertex 20.4 0 4
    endloop
  endfacet
  facet normal 0.2334453638559076 -0.9723699203976761 0
    outer loop
      vertex 20.71286893008046 0.02462331880972446 0
      vertex 21.01803398874989 0.09788696740969294 4
      vertex 20.71286893008046 0.02462331880972446 4
    endloop
  endfacet
  facet normal 0.3826834323650875 -0.9238795325112877 0
    outer loop
      vertex 21.307980999479092 0.2179869516232642 0
      vertex 21.307980999479092 0.2179869516232642 4
      vertex 21.01803398874989 0.09788696740969294 4
    endloop
  endfacet
  facet normal 0.5224985647159481 -0.8526401643540926 0
    outer loop
      vertex 21.575570504584945 0.3819660112501051 0
      vertex 21.575570504584945 0.3819660112501051 4
      vertex 21.307980999479092 0.2179869516232642 4
    endloop
  endfacet
  facet normal 0.6494480483301831 -0.7604059656000314 0
    outer loop
      vertex 21.575570504584945 0.3819660112501051 0
      vertex 21.814213562373094 0.5857864376269049 4
      vertex 21.575570504584945 0.3819660112501051 4
    endloop
  endfacet
  facet normal 0.7604059656000349 -0.649448048330179 0
    outer loop
      vertex 21.814213562373094 0.5857864376269049 0
      vertex 22.01803398874989 0.8244294954150537 4
      vertex 21.814213562373094 0.5857864376269049 4
    endloop
  endfacet
  facet normal 0.8526401643540887 -0.5224985647159545 0
    outer loop
      vertex 22.182013048376735 1.0920190005209065 0
      vertex 22.182013048376735 1.0920190005209065 4
      vertex 22.01803398874989 0.8244294954150537 4
    endloop
  endfacet
  facet normal 0.9238795325112873 -0.3826834323650883 0
    outer loop
      vertex 22.302113032590306 1.381966011250105 0
      vertex 22.302113032590306 1.381966011250105 4
      vertex 22.182013048376735 1.0920190005209065 4
    endloop
  endfacet
  facet normal 0.9723699203976761 -0.23344536385590786 0
    outer loop
      vertex 22.302113032590306 1.381966011250105 0
      vertex 22.375376681190275 1.6871310699195383 4
      vertex 22.302113032590306 1.381966011250105 4
    endloop
  endfacet
  facet normal 0.9969173337331282 -0.07845909572784186 0
    outer loop
      vertex 22.375376681190275 1.6871310699195383 0
      vertex 22.4 2 4
      vertex 22.375376681190275 1.6871310699195383 4
    endloop
  endfacet
  facet normal 0 0 1
    outer loop
      vertex 15.2 0 4
      vertex 20.4 0 4
      vertex 15.2 4 4
    endloop
  endfacet
  facet normal 0 0 1
    outer loop
      vertex 15.2 4 4
      vertex 20.4 0 4
      vertex 18 6.000000000000001 4
    endloop
  endfacet
  facet normal 0 0 1
    outer loop
      vertex 20.4 0 4
      vertex 18.7 8.3 4
      vertex 18 6.000000000000001 4
    endloop
  endfacet
  facet normal 0 0 1
    outer loop
      vertex 18 6.000000000000001 4
      vertex 18.7 8.3 4
      vertex 18 8.3 4
    endloop
  endfacet
  facet normal 0 0 1
    outer loop
      vertex 20.4 0 4
      vertex 20.71286893008046 0.02462331880972446 4
      vertex 22.302113032590306 20.218033988749895 4
    endloop
  endfacet
  facet normal 0 0 1
    outer loop
      vertex 20.71286893008046 0.02462331880972446 4
      vertex 21.01803398874989 0.09788696740969294 4
      vertex 22.302113032590306 20.218033988749895 4
    endloop
  endfacet
  facet normal 0 0 1
    outer loop
      vertex 21.01803398874989 0.09788696740969294 4
      vertex 21.307980999479092 0.2179869516232642 4
      vertex 22.302113032590306 20.218033988749895 4
    endloop
  endfacet
  facet normal 0 0 1
    outer loop
      vertex 21.307980999479092 0.2179869516232642 4
      vertex 21.575570504584945 0.3819660112501051 4
      vertex 22.302113032590306 20.218033988749895 4
    endloop
  endfacet
  facet normal 0 0 1
    outer loop
      vertex 21.575570504584945 0.3819660112501051 4
      vertex 21.814213562373094 0.5857864376269049 4
      vertex 22.302113032590306 20.218033988749895 4
    endloop
  endfacet
  facet normal 0 0 1
    outer loop
      vertex 21.814213562373094 0.5857864376269049 4
      vertex 22.01803398874989 0.8244294954150537 4
      vertex 22.302113032590306 20.218033988749895 4
    endloop
  endfacet
  facet normal 0 0 1
    outer loop
      vertex 22.01803398874989 0.8244294954150537 4
      vertex 22.182013048376735 1.0920190005209065 4
      vertex 22.302113032590306 20.218033988749895 4
    endloop
  endfacet
  facet normal 0 0 1
    outer loop
      vertex 22.182013048376735 1.0920190005209065 4
      vertex 22.302113032590306 1.381966011250105 4
      vertex 22.302113032590306 20.218033988749895 4
    endloop
  endfacet
  facet normal 0 0 1
    outer loop
      vertex 22.302113032590306 1.381966011250105 4
      vertex 22.375376681190275 1.6871310699195383 4
      vertex 22.302113032590306 20.218033988749895 4
    endloop
  endfacet
  facet normal 0 0 1
    outer loop
      vertex 22.375376681190275 1.6871310699195383 4
      vertex 22.4 2 4
      vertex 22.302113032590306 20.218033988749895 4
    endloop
  endfacet
  facet normal 0 0 -1
    outer loop
      vertex 3.6999999999999993 17.3 0
      vertex 22.302113032590306 20.218033988749895 0
      vertex 18.7 17.3 0
    endloop
  endfacet
  facet normal 0 0 -1
    outer loop
      vertex 2 21.6 0
      vertex 20.4 21.6 0
      vertex 22.302113032590306 20.218033988749895 0
    endloop
  endfacet
  facet normal 0 0 -1
    outer loop
      vertex 20.4 0 0
      vertex 18.7 8.3 0
      vertex 22.302113032590306 20.218033988749895 0
    endloop
  endfacet
  facet normal 0 0 -1
    outer loop
      vertex 18.7 8.3 0
      vertex 18.7 17.3 0
      vertex 22.302113032590306 20.218033988749895 0
    endloop
  endfacet
  facet normal 0 0 -1
    outer loop
      vertex 22.4 2 0
      vertex 22.302113032590306 20.218033988749895 0
      vertex 22.4 19.6 0
    endloop
  endfacet
  facet normal 0 0 -1
    outer loop
      vertex 22.4 19.6 0
      vertex 22.302113032590306 20.218033988749895 0
      vertex 22.375376681190275 19.912868930080464 0
    endloop
  endfacet
  facet normal 0 0 -1
    outer loop
      vertex 20.4 21.6 0
      vertex 20.71286893008046 21.575376681190278 0
      vertex 22.302113032590306 20.218033988749895 0
    endloop
  endfacet
  facet normal 0 0 -1
    outer loop
      vertex 20.71286893008046 21.575376681190278 0
      vertex 21.01803398874989 21.50211303259031 0
      vertex 22.302113032590306 20.218033988749895 0
    endloop
  endfacet
  facet normal 0 0 -1
    outer loop
      vertex 22.302113032590306 20.218033988749895 0
      vertex 21.01803398874989 21.50211303259031 0
      vertex 21.307980999479092 21.382013048376738 0
    endloop
  endfacet
  facet normal 0 0 -1
    outer loop
      vertex 22.302113032590306 20.218033988749895 0
      vertex 21.575570504584945 21.218033988749895 0
      vertex 21.814213562373094 21.014213562373097 0
    endloop
  endfacet
  facet normal 0 0 -1
    outer loop
      vertex 22.302113032590306 20.218033988749895 0
      vertex 21.814213562373094 21.014213562373097 0
      vertex 22.01803398874989 20.775570504584948 0
    endloop
  endfacet
  facet normal 0 0 -1
    outer loop
      vertex 22.302113032590306 20.218033988749895 0
      vertex 22.01803398874989 20.775570504584948 0
      vertex 22.182013048376735 20.507980999479095 0
    endloop
  endfacet
  facet normal 0 0 -1
    outer loop
      vertex 22.302113032590306 20.218033988749895 0
      vertex 21.307980999479092 21.382013048376738 0
      vertex 21.575570504584945 21.218033988749895 0
    endloop
  endfacet
  facet normal 0.0784590957278417 0.9969173337331282 2.9946566718392506e-20
    outer loop
      vertex 20.4 21.6 0
      vertex 20.71286893008046 21.575376681190278 4
      vertex 20.71286893008046 21.575376681190278 0
    endloop
  endfacet
  facet normal 0.2334453638559096 0.9723699203976756 9.950487831555426e-19
    outer loop
      vertex 20.71286893008046 21.575376681190278 0
      vertex 21.01803398874989 21.50211303259031 4
      vertex 21.01803398874989 21.50211303259031 0
    endloop
  endfacet
  facet normal 0.9969173337331282 0.0784590957278417 2.9946566718392506e-20
    outer loop
      vertex 22.4 19.6 0
      vertex 22.375376681190275 19.912868930080464 0
      vertex 22.375376681190275 19.912868930080464 4
    endloop
  endfacet
  facet normal 0.38268343236508634 0.9238795325112882 0
    outer loop
      vertex 21.01803398874989 21.50211303259031 0
      vertex 21.01803398874989 21.50211303259031 4
      vertex 21.307980999479092 21.382013048376738 0
    endloop
  endfacet
  facet normal 0.6494480483301787 0.7604059656000353 0
    outer loop
      vertex 21.575570504584945 21.218033988749895 0
      vertex 21.575570504584945 21.218033988749895 4
      vertex 21.814213562373094 21.014213562373097 0
    endloop
  endfacet
  facet normal 0.5224985647159539 0.8526401643540893 1.0555577675315558e-18
    outer loop
      vertex 21.307980999479092 21.382013048376738 0
      vertex 21.575570504584945 21.218033988749895 4
      vertex 21.575570504584945 21.218033988749895 0
    endloop
  endfacet
  facet normal 0.9723699203976756 0.2334453638559096 9.950487831555426e-19
    outer loop
      vertex 22.375376681190275 19.912868930080464 0
      vertex 22.302113032590306 20.218033988749895 0
      vertex 22.302113032590306 20.218033988749895 4
    endloop
  endfacet
  facet normal 0.9238795325112882 0.38268343236508634 0
    outer loop
      vertex 22.302113032590306 20.218033988749895 0
      vertex 22.182013048376735 20.507980999479095 0
      vertex 22.302113032590306 20.218033988749895 4
    endloop
  endfacet
  facet normal 0.8526401643540893 0.5224985647159539 0
    outer loop
      vertex 22.01803398874989 20.775570504584948 0
      vertex 22.01803398874989 20.775570504584948 4
      vertex 22.182013048376735 20.507980999479095 0
    endloop
  endfacet
  facet normal 0.7604059656000353 0.6494480483301787 0
    outer loop
      vertex 22.01803398874989 20.775570504584948 0
      vertex 21.814213562373094 21.014213562373097 0
      vertex 22.01803398874989 20.775570504584948 4
    endloop
  endfacet
  facet normal 0 1 0
    outer loop
      vertex 2 21.6 4
      vertex 20.4 21.6 4
      vertex 20.4 21.6 0
    endloop
  endfacet
  facet normal 0 0 1
    outer loop
      vertex 4.3999999999999995 19.6 4
      vertex 18 19.6 4
      vertex 22.302113032590306 20.218033988749895 4
    endloop
  endfacet
  facet normal 0 0 1
    outer loop
      vertex 2 21.6 4
      vertex 22.302113032590306 20.218033988749895 4
      vertex 20.4 21.6 4
    endloop
  endfacet
  facet normal 1 0 0
    outer loop
      vertex 22.4 2 4
      vertex 22.4 19.6 0
      vertex 22.4 19.6 4
    endloop
  endfacet
  facet normal 0 0 1
    outer loop
      vertex 20.4 0 4
      vertex 22.302113032590306 20.218033988749895 4
      vertex 18.7 8.3 4
    endloop
  endfacet
  facet normal 0 0 1
    outer loop
      vertex 18.7 8.3 4
      vertex 22.302113032590306 20.218033988749895 4
      vertex 18.7 17.3 4
    endloop
  endfacet
  facet normal 0 0 1
    outer loop
      vertex 22.4 2 4
      vertex 22.4 19.6 4
      vertex 22.302113032590306 20.218033988749895 4
    endloop
  endfacet
  facet normal 0.0784590957278417 0.9969173337331282 0
    outer loop
      vertex 20.4 21.6 0
      vertex 20.4 21.6 4
      vertex 20.71286893008046 21.575376681190278 4
    endloop
  endfacet
  facet normal 0.2334453638559096 0.9723699203976756 0
    outer loop
      vertex 20.71286893008046 21.575376681190278 0
      vertex 20.71286893008046 21.575376681190278 4
      vertex 21.01803398874989 21.50211303259031 4
    endloop
  endfacet
  facet normal 0.9969173337331282 0.0784590957278417 0
    outer loop
      vertex 22.4 19.6 0
      vertex 22.375376681190275 19.912868930080464 4
      vertex 22.4 19.6 4
    endloop
  endfacet
  facet normal 0.9723699203976756 0.2334453638559096 0
    outer loop
      vertex 22.375376681190275 19.912868930080464 0
      vertex 22.302113032590306 20.218033988749895 4
      vertex 22.375376681190275 19.912868930080464 4
    endloop
  endfacet
  facet normal 0.38268343236508634 0.9238795325112882 0
    outer loop
      vertex 21.307980999479092 21.382013048376738 0
      vertex 21.01803398874989 21.50211303259031 4
      vertex 21.307980999479092 21.382013048376738 4
    endloop
  endfacet
  facet normal 0.5224985647159539 0.8526401643540893 0
    outer loop
      vertex 21.307980999479092 21.382013048376738 0
      vertex 21.307980999479092 21.382013048376738 4
      vertex 21.575570504584945 21.218033988749895 4
    endloop
  endfacet
  facet normal 0.9238795325112882 0.38268343236508634 0
    outer loop
      vertex 22.182013048376735 20.507980999479095 0
      vertex 22.182013048376735 20.507980999479095 4
      vertex 22.302113032590306 20.218033988749895 4
    endloop
  endfacet
  facet normal 0.8526401643540893 0.5224985647159539 0
    outer loop
      vertex 22.182013048376735 20.507980999479095 0
      vertex 22.01803398874989 20.775570504584948 4
      vertex 22.182013048376735 20.507980999479095 4
    endloop
  endfacet
  facet normal 0.6494480483301787 0.7604059656000353 0
    outer loop
      vertex 21.814213562373094 21.014213562373097 0
      vertex 21.575570504584945 21.218033988749895 4
      vertex 21.814213562373094 21.014213562373097 4
    endloop
  endfacet
  facet normal 0.7604059656000353 0.6494480483301787 0
    outer loop
      vertex 21.814213562373094 21.014213562373097 0
      vertex 21.814213562373094 21.014213562373097 4
      vertex 22.01803398874989 20.775570504584948 4
    endloop
  endfacet
  facet normal 0 0 1
    outer loop
      vertex 18 17.3 4
      vertex 22.302113032590306 20.218033988749895 4
      vertex 18 19.6 4
    endloop
  endfacet
  facet normal 0 0 1
    outer loop
      vertex 18 17.3 4
      vertex 18.7 17.3 4
      vertex 22.302113032590306 20.218033988749895 4
    endloop
  endfacet
  facet normal 0 0 1
    outer loop
      vertex 22.4 19.6 4
      vertex 22.375376681190275 19.912868930080464 4
      vertex 22.302113032590306 20.218033988749895 4
    endloop
  endfacet
  facet normal 0 0 1
    outer loop
      vertex 20.4 21.6 4
      vertex 22.302113032590306 20.218033988749895 4
      vertex 20.71286893008046 21.575376681190278 4
    endloop
  endfacet
  facet normal 0 0 1
    outer loop
      vertex 20.71286893008046 21.575376681190278 4
      vertex 22.302113032590306 20.218033988749895 4
      vertex 21.01803398874989 21.50211303259031 4
    endloop
  endfacet
  facet normal 0 0 1
    outer loop
      vertex 22.302113032590306 20.218033988749895 4
      vertex 21.307980999479092 21.382013048376738 4
      vertex 21.01803398874989 21.50211303259031 4
    endloop
  endfacet
  facet normal 0 0 1
    outer loop
      vertex 22.302113032590306 20.218033988749895 4
      vertex 21.814213562373094 21.014213562373097 4
      vertex 21.575570504584945 21.218033988749895 4
    endloop
  endfacet
  facet normal 0 0 1
    outer loop
      vertex 22.302113032590306 20.218033988749895 4
      vertex 22.01803398874989 20.775570504584948 4
      vertex 21.814213562373094 21.014213562373097 4
    endloop
  endfacet
  facet normal 0 0 1
    outer loop
      vertex 22.302113032590306 20.218033988749895 4
      vertex 22.182013048376735 20.507980999479095 4
      vertex 22.01803398874989 20.775570504584948 4
    endloop
  endfacet
  facet normal 0 0 1
    outer loop
      vertex 22.302113032590306 20.218033988749895 4
      vertex 21.575570504584945 21.218033988749895 4
      vertex 21.307980999479092 21.382013048376738 4
    endloop
  endfacet
  facet normal 0 1 0
    outer loop
      vertex 3.6999999999999993 8.3 0
      vertex 3.6999999999999993 8.3 4
      vertex 4.3999999999999995 8.3 1.2
    endloop
  endfacet
  facet normal 0 1 0
    outer loop
      vertex 3.6999999999999993 8.3 0
      vertex 4.3999999999999995 8.3 1.2
      vertex 18 8.3 1.2
    endloop
  endfacet
  facet normal 0 1 0
    outer loop
      vertex 4.3999999999999995 8.3 1.2
      vertex 3.6999999999999993 8.3 4
      vertex 4.3999999999999995 8.3 4
    endloop
  endfacet
  facet normal 1 0 0
    outer loop
      vertex 3.6999999999999993 8.3 0
      vertex 3.6999999999999993 17.3 0
      vertex 3.6999999999999993 17.3 4
    endloop
  endfacet
  facet normal 0 -1 0
    outer loop
      vertex 3.6999999999999993 17.3 0
      vertex 4.3999999999999995 17.3 1.2
      vertex 3.6999999999999993 17.3 4
    endloop
  endfacet
  facet normal 0 -1 0
    outer loop
      vertex 3.6999999999999993 17.3 0
      vertex 18 17.3 1.2
      vertex 4.3999999999999995 17.3 1.2
    endloop
  endfacet
  facet normal 1 0 0
    outer loop
      vertex 3.6999999999999993 8.3 0
      vertex 3.6999999999999993 17.3 4
      vertex 3.6999999999999993 8.3 4
    endloop
  endfacet
  facet normal 0 -1 0
    outer loop
      vertex 4.3999999999999995 17.3 1.2
      vertex 4.3999999999999995 17.3 4
      vertex 3.6999999999999993 17.3 4
    endloop
  endfacet
  facet normal 0 1 0
    outer loop
      vertex 3.6999999999999993 8.3 0
      vertex 18 8.3 1.2
      vertex 18.7 8.3 0
    endloop
  endfacet
  facet normal 0 1 0
    outer loop
      vertex 18.7 8.3 0
      vertex 18 8.3 1.2
      vertex 18.7 8.3 4
    endloop
  endfacet
  facet normal 0 1 0
    outer loop
      vertex 18 8.3 1.2
      vertex 18 8.3 4
      vertex 18.7 8.3 4
    endloop
  endfacet
  facet normal 0 -1 0
    outer loop
      vertex 3.6999999999999993 17.3 0
      vertex 18.7 17.3 0
      vertex 18 17.3 1.2
    endloop
  endfacet
  facet normal -1 0 0
    outer loop
      vertex 18.7 8.3 0
      vertex 18.7 8.3 4
      vertex 18.7 17.3 0
    endloop
  endfacet
  facet normal 0 -1 0
    outer loop
      vertex 18.7 17.3 0
      vertex 18.7 17.3 4
      vertex 18 17.3 1.2
    endloop
  endfacet
  facet normal -1 0 0
    outer loop
      vertex 18.7 8.3 4
      vertex 18.7 17.3 4
      vertex 18.7 17.3 0
    endloop
  endfacet
  facet normal 0 -1 0
    outer loop
      vertex 18 17.3 1.2
      vertex 18.7 17.3 4
      vertex 18 17.3 4
    endloop
  endfacet
  facet normal 0 0 1
    outer loop
      vertex 4.3999999999999995 6.000000000000001 1.2
      vertex 18 8.3 1.2
      vertex 4.3999999999999995 8.3 1.2
    endloop
  endfacet
  facet normal 1 0 0
    outer loop
      vertex 4.3999999999999995 6.000000000000001 1.2
      vertex 4.3999999999999995 8.3 1.2
      vertex 4.3999999999999995 8.3 4
    endloop
  endfacet
  facet normal 1 0 0
    outer loop
      vertex 4.3999999999999995 6.000000000000001 1.2
      vertex 4.3999999999999995 8.3 4
      vertex 4.3999999999999995 6.000000000000001 4
    endloop
  endfacet
  facet normal 0 1 0
    outer loop
      vertex 4.3999999999999995 6.000000000000001 1.2
      vertex 4.3999999999999995 6.000000000000001 4
      vertex 18 6.000000000000001 1.2
    endloop
  endfacet
  facet normal 0 0 1
    outer loop
      vertex 4.3999999999999995 17.3 1.2
      vertex 18 19.6 1.2
      vertex 4.3999999999999995 19.6 1.2
    endloop
  endfacet
  facet normal 1 0 0
    outer loop
      vertex 4.3999999999999995 17.3 1.2
      vertex 4.3999999999999995 19.6 4
      vertex 4.3999999999999995 17.3 4
    endloop
  endfacet
  facet normal 1 0 0
    outer loop
      vertex 4.3999999999999995 17.3 1.2
      vertex 4.3999999999999995 19.6 1.2
      vertex 4.3999999999999995 19.6 4
    endloop
  endfacet
  facet normal 0 -1 0
    outer loop
      vertex 4.3999999999999995 19.6 1.2
      vertex 18 19.6 4
      vertex 4.3999999999999995 19.6 4
    endloop
  endfacet
  facet normal 0 0 1
    outer loop
      vertex 4.3999999999999995 6.000000000000001 1.2
      vertex 18 6.000000000000001 1.2
      vertex 18 8.3 1.2
    endloop
  endfacet
  facet normal 0 1 0
    outer loop
      vertex 4.3999999999999995 6.000000000000001 4
      vertex 18 6.000000000000001 4
      vertex 18 6.000000000000001 1.2
    endloop
  endfacet
  facet normal -1 0 0
    outer loop
      vertex 18 6.000000000000001 1.2
      vertex 18 6.000000000000001 4
      vertex 18 8.3 1.2
    endloop
  endfacet
  facet normal -1 0 0
    outer loop
      vertex 18 8.3 1.2
      vertex 18 6.000000000000001 4
      vertex 18 8.3 4
    endloop
  endfacet
  facet normal 0 0 1
    outer loop
      vertex 4.3999999999999995 17.3 1.2
      vertex 18 17.3 1.2
      vertex 18 19.6 1.2
    endloop
  endfacet
  facet normal 0 -1 0
    outer loop
      vertex 4.3999999999999995 19.6 1.2
      vertex 18 19.6 1.2
      vertex 18 19.6 4
    endloop
  endfacet
  facet normal -1 0 0
    outer loop
      vertex 18 17.3 1.2
      vertex 18 17.3 4
      vertex 18 19.6 1.2
    endloop
  endfacet
  facet normal -1 0 0
    outer loop
      vertex 18 19.6 1.2
      vertex 18 17.3 4
      vertex 18 19.6 4
    endloop
  endfacet
  facet normal 1 0 0
    outer loop
      vertex 7.199999999999999 0 0
      vertex 7.199999999999999 4 0
      vertex 7.199999999999999 0 4
    endloop
  endfacet
  facet normal 1 0 0
    outer loop
      vertex 7.199999999999999 4 0
      vertex 7.199999999999999 4 4
      vertex 7.199999999999999 0 4
    endloop
  endfacet
  facet normal 0 -1 0
    outer loop
      vertex 7.199999999999999 4 0
      vertex 15.2 4 4
      vertex 7.199999999999999 4 4
    endloop
  endfacet
  facet normal -1 0 0
    outer loop
      vertex 15.2 0 0
      vertex 15.2 4 4
      vertex 15.2 4 0
    endloop
  endfacet
  facet normal 0 -1 0
    outer loop
      vertex 7.199999999999999 4 0
      vertex 15.2 4 0
      vertex 15.2 4 4
    endloop
  endfacet
  facet normal -1 0 0
    outer loop
      vertex 15.2 0 0
      vertex 15.2 0 4
      vertex 15.2 4 4
    endloop
  endfacet
  facet normal -1.9291090130259614e-19 -0.5224985647159492 -0.8526401643540918
    outer loop
      vertex 8.7 -1.6457987064189248 -0.2652475842498525
      vertex 8.7 -1.271173399270731 -0.49481826772743
      vertex 13.7 -1.271173399270731 -0.49481826772743
    endloop
  endfacet
  facet normal 0 -0.6494480483301832 -0.7604059656000316
    outer loop
      vertex 8.7 -1.6457987064189248 -0.2652475842498525
      vertex 13.7 -1.6457987064189248 -0.2652475842498525
      vertex 8.7 -1.9798989873223332 0.02010101267766684
    endloop
  endfacet
  facet normal -9.285777896868388e-19 -0.23344536385590625 -0.9723699203976764
    outer loop
      vertex 8.7 -0.8652475842498527 -0.6629582456264296
      vertex 8.7 -0.4380165021126464 -0.7655273536663856
      vertex 13.7 -0.4380165021126464 -0.7655273536663856
    endloop
  endfacet
  facet normal 3.007508805461524e-18 -0.38268343236508895 -0.9238795325112871
    outer loop
      vertex 8.7 -1.271173399270731 -0.49481826772743
      vertex 8.7 -0.8652475842498527 -0.6629582456264296
      vertex 13.7 -0.8652475842498527 -0.6629582456264296
    endloop
  endfacet
  facet normal -3.4665841905902956e-19 -0.07845909572784467 -0.9969173337331279
    outer loop
      vertex 8.7 -0.4380165021126464 -0.7655273536663856
      vertex 8.7 0 -0.7999999999999998
      vertex 13.7 0 -0.7999999999999998
    endloop
  endfacet
  facet normal 0 -0.7604059656000316 -0.6494480483301832
    outer loop
      vertex 8.7 -2.2652475842498525 0.3542012935810752
      vertex 8.7 -1.9798989873223332 0.02010101267766684
      vertex 13.7 -2.2652475842498525 0.3542012935810752
    endloop
  endfacet
  facet normal 3.4665841905902956e-19 0.07845909572784467 -0.9969173337331279
    outer loop
      vertex 8.7 0 -0.7999999999999998
      vertex 8.7 0.4380165021126464 -0.7655273536663856
      vertex 13.7 0.4380165021126464 -0.7655273536663856
    endloop
  endfacet
  facet normal 9.285777896868388e-19 0.23344536385590625 -0.9723699203976764
    outer loop
      vertex 8.7 0.4380165021126464 -0.7655273536663856
      vertex 8.7 0.8652475842498527 -0.6629582456264296
      vertex 13.7 0.8652475842498527 -0.6629582456264296
    endloop
  endfacet
  facet normal -3.007508805461524e-18 0.38268343236508895 -0.9238795325112871
    outer loop
      vertex 8.7 0.8652475842498527 -0.6629582456264296
      vertex 8.7 1.271173399270731 -0.49481826772743
      vertex 13.7 1.271173399270731 -0.49481826772743
    endloop
  endfacet
  facet normal 1.9291090130259614e-19 0.5224985647159492 -0.8526401643540918
    outer loop
      vertex 8.7 1.271173399270731 -0.49481826772743
      vertex 8.7 1.6457987064189248 -0.2652475842498525
      vertex 13.7 1.6457987064189248 -0.2652475842498525
    endloop
  endfacet
  facet normal -2.8329170356172077e-18 0.6494480483301832 -0.7604059656000316
    outer loop
      vertex 8.7 1.6457987064189248 -0.2652475842498525
      vertex 8.7 1.9798989873223332 0.02010101267766684
      vertex 13.7 1.9798989873223332 0.02010101267766684
    endloop
  endfacet
  facet normal 0 0.7604059656000316 -0.6494480483301832
    outer loop
      vertex 8.7 1.9798989873223332 0.02010101267766684
      vertex 8.7 2.2652475842498525 0.3542012935810752
      vertex 13.7 1.9798989873223332 0.02010101267766684
    endloop
  endfacet
  facet normal 0 0.8526401643540918 -0.5224985647159492
    outer loop
      vertex 8.7 2.2652475842498525 0.3542012935810752
      vertex 8.7 2.49481826772743 0.728826600729269
      vertex 13.7 2.2652475842498525 0.3542012935810752
    endloop
  endfacet
  facet normal -1 0 0
    outer loop
      vertex 8.7 -1.6457987064189248 -0.2652475842498525
      vertex 8.7 -1.271173399270731 4.49481826772743
      vertex 8.7 -1.271173399270731 -0.49481826772743
    endloop
  endfacet
  facet normal -1 0 0
    outer loop
      vertex 8.7 -0.8652475842498527 -0.6629582456264296
      vertex 8.7 -0.4380165021126464 4.765527353666386
      vertex 8.7 -0.4380165021126464 -0.7655273536663856
    endloop
  endfacet
  facet normal -1 0 0
    outer loop
      vertex 8.7 -1.271173399270731 -0.49481826772743
      vertex 8.7 -0.8652475842498527 4.662958245626429
      vertex 8.7 -0.8652475842498527 -0.6629582456264296
    endloop
  endfacet
  facet normal -1 0 0
    outer loop
      vertex 8.7 -0.4380165021126464 -0.7655273536663856
      vertex 8.7 0 4.8
      vertex 8.7 0 -0.7999999999999998
    endloop
  endfacet
  facet normal -1.9291090130259614e-19 -0.8526401643540918 -0.5224985647159492
    outer loop
      vertex 8.7 -2.2652475842498525 0.3542012935810752
      vertex 13.7 -2.49481826772743 0.728826600729269
      vertex 8.7 -2.49481826772743 0.728826600729269
    endloop
  endfacet
  facet normal 8.273465410639276e-19 -0.9238795325112871 -0.3826834323650889
    outer loop
      vertex 8.7 -2.49481826772743 0.728826600729269
      vertex 13.7 -2.6629582456264296 1.1347524157501474
      vertex 8.7 -2.6629582456264296 1.1347524157501474
    endloop
  endfacet
  facet normal -1 0 0
    outer loop
      vertex 8.7 -2.2652475842498525 0.3542012935810752
      vertex 8.7 -1.9798989873223332 3.979898987322333
      vertex 8.7 -1.9798989873223332 0.02010101267766684
    endloop
  endfacet
  facet normal -1 0 0
    outer loop
      vertex 8.7 -2.2652475842498525 0.3542012935810752
      vertex 8.7 -2.49481826772743 0.728826600729269
      vertex 8.7 -2.2652475842498525 3.645798706418925
    endloop
  endfacet
  facet normal -1 0 0
    outer loop
      vertex 8.7 -1.6457987064189248 -0.2652475842498525
      vertex 8.7 -1.9798989873223332 0.02010101267766684
      vertex 8.7 -1.6457987064189248 4.2652475842498525
    endloop
  endfacet
  facet normal -1 0 0
    outer loop
      vertex 8.7 -2.49481826772743 0.728826600729269
      vertex 8.7 -2.6629582456264296 1.1347524157501474
      vertex 8.7 -2.49481826772743 3.2711733992707313
    endloop
  endfacet
  facet normal -1 0 0
    outer loop
      vertex 8.7 -2.6629582456264296 1.1347524157501474
      vertex 8.7 -2.7655273536663856 1.5619834978873537
      vertex 8.7 -2.6629582456264296 2.8652475842498526
    endloop
  endfacet
  facet normal -9.285777896868388e-19 -0.9723699203976764 -0.23344536385590625
    outer loop
      vertex 8.7 -2.6629582456264296 1.1347524157501474
      vertex 13.7 -2.7655273536663856 1.5619834978873537
      vertex 8.7 -2.7655273536663856 1.5619834978873537
    endloop
  endfacet
  facet normal -1.8379575036471005e-19 -0.9969173337331279 -0.07845909572784468
    outer loop
      vertex 8.7 -2.7655273536663856 1.5619834978873537
      vertex 13.7 -2.8 2
      vertex 8.7 -2.8 2
    endloop
  endfacet
  facet normal -1 0 0
    outer loop
      vertex 8.7 0 -0.7999999999999998
      vertex 8.7 0.4380165021126464 4.765527353666386
      vertex 8.7 0.4380165021126464 -0.7655273536663856
    endloop
  endfacet
  facet normal -1 0 0
    outer loop
      vertex 8.7 0.4380165021126464 -0.7655273536663856
      vertex 8.7 0.8652475842498527 4.662958245626429
      vertex 8.7 0.8652475842498527 -0.6629582456264296
    endloop
  endfacet
  facet normal -1 0 0
    outer loop
      vertex 8.7 0.8652475842498527 -0.6629582456264296
      vertex 8.7 1.271173399270731 4.49481826772743
      vertex 8.7 1.271173399270731 -0.49481826772743
    endloop
  endfacet
  facet normal -1 0 0
    outer loop
      vertex 8.7 1.271173399270731 -0.49481826772743
      vertex 8.7 1.6457987064189248 4.2652475842498525
      vertex 8.7 1.6457987064189248 -0.2652475842498525
    endloop
  endfacet
  facet normal -1 0 0
    outer loop
      vertex 8.7 1.6457987064189248 -0.2652475842498525
      vertex 8.7 1.9798989873223332 3.979898987322333
      vertex 8.7 1.9798989873223332 0.02010101267766684
    endloop
  endfacet
  facet normal 0 0.9238795325112871 -0.3826834323650889
    outer loop
      vertex 8.7 2.49481826772743 0.728826600729269
      vertex 8.7 2.6629582456264296 1.1347524157501474
      vertex 13.7 2.49481826772743 0.728826600729269
    endloop
  endfacet
  facet normal 0 0.9723699203976764 -0.23344536385590625
    outer loop
      vertex 8.7 2.6629582456264296 1.1347524157501474
      vertex 8.7 2.7655273536663856 1.5619834978873537
      vertex 13.7 2.6629582456264296 1.1347524157501474
    endloop
  endfacet
  facet normal -1 0 0
    outer loop
      vertex 8.7 1.9798989873223332 0.02010101267766684
      vertex 8.7 2.2652475842498525 3.645798706418925
      vertex 8.7 2.2652475842498525 0.3542012935810752
    endloop
  endfacet
  facet normal -1 0 0
    outer loop
      vertex 8.7 2.2652475842498525 0.3542012935810752
      vertex 8.7 2.49481826772743 3.2711733992707313
      vertex 8.7 2.49481826772743 0.728826600729269
    endloop
  endfacet
  facet normal -1 0 0
    outer loop
      vertex 8.7 2.49481826772743 0.728826600729269
      vertex 8.7 2.6629582456264296 2.8652475842498526
      vertex 8.7 2.6629582456264296 1.1347524157501474
    endloop
  endfacet
  facet normal -1 0 0
    outer loop
      vertex 8.7 2.6629582456264296 1.1347524157501474
      vertex 8.7 2.7655273536663856 2.4380165021126463
      vertex 8.7 2.7655273536663856 1.5619834978873537
    endloop
  endfacet
  facet normal 0 0.9969173337331279 -0.07845909572784468
    outer loop
      vertex 8.7 2.7655273536663856 1.5619834978873537
      vertex 8.7 2.8 2
      vertex 13.7 2.7655273536663856 1.5619834978873537
    endloop
  endfacet
  facet normal -1 0 0
    outer loop
      vertex 8.7 -2.7655273536663856 1.5619834978873537
      vertex 8.7 -2.8 2
      vertex 8.7 -2.7655273536663856 2.4380165021126463
    endloop
  endfacet
  facet normal -1 0 0
    outer loop
      vertex 8.7 -2.7655273536663856 1.5619834978873537
      vertex 8.7 -2.7655273536663856 2.4380165021126463
      vertex 8.7 -2.6629582456264296 2.8652475842498526
    endloop
  endfacet
  facet normal -1 0 0
    outer loop
      vertex 8.7 -2.6629582456264296 1.1347524157501474
      vertex 8.7 -2.6629582456264296 2.8652475842498526
      vertex 8.7 -2.49481826772743 3.2711733992707313
    endloop
  endfacet
  facet normal -1 0 0
    outer loop
      vertex 8.7 -2.49481826772743 0.728826600729269
      vertex 8.7 -2.49481826772743 3.2711733992707313
      vertex 8.7 -2.2652475842498525 3.645798706418925
    endloop
  endfacet
  facet normal -1 0 0
    outer loop
      vertex 8.7 -2.2652475842498525 0.3542012935810752
      vertex 8.7 -2.2652475842498525 3.645798706418925
      vertex 8.7 -1.9798989873223332 3.979898987322333
    endloop
  endfacet
  facet normal 1.8379575036471005e-19 -0.9969173337331279 0.07845909572784468
    outer loop
      vertex 8.7 -2.8 2
      vertex 13.7 -2.7655273536663856 2.4380165021126463
      vertex 8.7 -2.7655273536663856 2.4380165021126463
    endloop
  endfacet
  facet normal -1 0 0
    outer loop
      vertex 8.7 -1.9798989873223332 0.02010101267766684
      vertex 8.7 -1.9798989873223332 3.979898987322333
      vertex 8.7 -1.6457987064189248 4.2652475842498525
    endloop
  endfacet
  facet normal -1 0 0
    outer loop
      vertex 8.7 -1.6457987064189248 -0.2652475842498525
      vertex 8.7 -1.6457987064189248 4.2652475842498525
      vertex 8.7 -1.271173399270731 4.49481826772743
    endloop
  endfacet
  facet normal -1 0 0
    outer loop
      vertex 8.7 -1.271173399270731 -0.49481826772743
      vertex 8.7 -1.271173399270731 4.49481826772743
      vertex 8.7 -0.8652475842498527 4.662958245626429
    endloop
  endfacet
  facet normal -1 0 0
    outer loop
      vertex 8.7 -0.8652475842498527 -0.6629582456264296
      vertex 8.7 -0.8652475842498527 4.662958245626429
      vertex 8.7 -0.4380165021126464 4.765527353666386
    endloop
  endfacet
  facet normal -1 0 0
    outer loop
      vertex 8.7 -0.4380165021126464 -0.7655273536663856
      vertex 8.7 -0.4380165021126464 4.765527353666386
      vertex 8.7 0 4.8
    endloop
  endfacet
  facet normal -1 0 0
    outer loop
      vertex 8.7 0 -0.7999999999999998
      vertex 8.7 0 4.8
      vertex 8.7 0.4380165021126464 4.765527353666386
    endloop
  endfacet
  facet normal 9.285777896868388e-19 -0.9723699203976764 0.23344536385590625
    outer loop
      vertex 8.7 -2.7655273536663856 2.4380165021126463
      vertex 13.7 -2.6629582456264296 2.8652475842498526
      vertex 8.7 -2.6629582456264296 2.8652475842498526
    endloop
  endfacet
  facet normal -2.7841389029572476e-18 -0.9238795325112872 0.3826834323650886
    outer loop
      vertex 8.7 -2.6629582456264296 2.8652475842498526
      vertex 13.7 -2.49481826772743 3.2711733992707313
      vertex 8.7 -2.49481826772743 3.2711733992707313
    endloop
  endfacet
  facet normal -1 0 0
    outer loop
      vertex 8.7 1.6457987064189248 -0.2652475842498525
      vertex 8.7 1.6457987064189248 4.2652475842498525
      vertex 8.7 1.9798989873223332 3.979898987322333
    endloop
  endfacet
  facet normal -1 0 0
    outer loop
      vertex 8.7 2.7655273536663856 1.5619834978873537
      vertex 8.7 2.7655273536663856 2.4380165021126463
      vertex 8.7 2.8 2
    endloop
  endfacet
  facet normal -1 0 0
    outer loop
      vertex 8.7 2.6629582456264296 1.1347524157501474
      vertex 8.7 2.6629582456264296 2.8652475842498526
      vertex 8.7 2.7655273536663856 2.4380165021126463
    endloop
  endfacet
  facet normal -1 0 0
    outer loop
      vertex 8.7 2.49481826772743 0.728826600729269
      vertex 8.7 2.49481826772743 3.2711733992707313
      vertex 8.7 2.6629582456264296 2.8652475842498526
    endloop
  endfacet
  facet normal -1 0 0
    outer loop
      vertex 8.7 2.2652475842498525 0.3542012935810752
      vertex 8.7 2.2652475842498525 3.645798706418925
      vertex 8.7 2.49481826772743 3.2711733992707313
    endloop
  endfacet
  facet normal -1 0 0
    outer loop
      vertex 8.7 1.9798989873223332 0.02010101267766684
      vertex 8.7 1.9798989873223332 3.979898987322333
      vertex 8.7 2.2652475842498525 3.645798706418925
    endloop
  endfacet
  facet normal 0 0.9969173337331279 0.07845909572784468
    outer loop
      vertex 8.7 2.8 2
      vertex 8.7 2.7655273536663856 2.4380165021126463
      vertex 13.7 2.8 2
    endloop
  endfacet
  facet normal 0 0.9723699203976764 0.23344536385590625
    outer loop
      vertex 8.7 2.7655273536663856 2.4380165021126463
      vertex 8.7 2.6629582456264296 2.8652475842498526
      vertex 13.7 2.7655273536663856 2.4380165021126463
    endloop
  endfacet
  facet normal -1 0 0
    outer loop
      vertex 8.7 0.8652475842498527 -0.6629582456264296
      vertex 8.7 0.8652475842498527 4.662958245626429
      vertex 8.7 1.271173399270731 4.49481826772743
    endloop
  endfacet
  facet normal -1 0 0
    outer loop
      vertex 8.7 0.4380165021126464 -0.7655273536663856
      vertex 8.7 0.4380165021126464 4.765527353666386
      vertex 8.7 0.8652475842498527 4.662958245626429
    endloop
  endfacet
  facet normal -1 0 0
    outer loop
      vertex 8.7 1.271173399270731 -0.49481826772743
      vertex 8.7 1.271173399270731 4.49481826772743
      vertex 8.7 1.6457987064189248 4.2652475842498525
    endloop
  endfacet
  facet normal 0 0.9238795325112872 0.3826834323650886
    outer loop
      vertex 8.7 2.6629582456264296 2.8652475842498526
      vertex 8.7 2.49481826772743 3.2711733992707313
      vertex 13.7 2.6629582456264296 2.8652475842498526
    endloop
  endfacet
  facet normal 0 0.852640164354092 0.5224985647159496
    outer loop
      vertex 8.7 2.49481826772743 3.2711733992707313
      vertex 8.7 2.2652475842498525 3.645798706418925
      vertex 13.7 2.49481826772743 3.2711733992707313
    endloop
  endfacet
  facet normal 2.2577809888068727e-18 -0.852640164354092 0.5224985647159496
    outer loop
      vertex 8.7 -2.49481826772743 3.2711733992707313
      vertex 13.7 -2.2652475842498525 3.645798706418925
      vertex 8.7 -2.2652475842498525 3.645798706418925
    endloop
  endfacet
  facet normal -2.8329170356172077e-18 -0.7604059656000316 0.6494480483301832
    outer loop
      vertex 8.7 -2.2652475842498525 3.645798706418925
      vertex 13.7 -1.9798989873223332 3.979898987322333
      vertex 8.7 -1.9798989873223332 3.979898987322333
    endloop
  endfacet
  facet normal 0 -0.6494480483301832 0.7604059656000316
    outer loop
      vertex 8.7 -1.9798989873223332 3.979898987322333
      vertex 13.7 -1.9798989873223332 3.979898987322333
      vertex 8.7 -1.6457987064189248 4.2652475842498525
    endloop
  endfacet
  facet normal 0 -0.5224985647159492 0.8526401643540918
    outer loop
      vertex 8.7 -1.6457987064189248 4.2652475842498525
      vertex 13.7 -1.6457987064189248 4.2652475842498525
      vertex 8.7 -1.271173399270731 4.49481826772743
    endloop
  endfacet
  facet normal 0 -0.3826834323650881 0.9238795325112875
    outer loop
      vertex 8.7 -1.271173399270731 4.49481826772743
      vertex 13.7 -1.271173399270731 4.49481826772743
      vertex 8.7 -0.8652475842498527 4.662958245626429
    endloop
  endfacet
  facet normal 0 -0.23344536385590722 0.9723699203976762
    outer loop
      vertex 8.7 -0.8652475842498527 4.662958245626429
      vertex 13.7 -0.8652475842498527 4.662958245626429
      vertex 8.7 -0.4380165021126464 4.765527353666386
    endloop
  endfacet
  facet normal 0 -0.07845909572784467 0.9969173337331279
    outer loop
      vertex 8.7 -0.4380165021126464 4.765527353666386
      vertex 13.7 -0.4380165021126464 4.765527353666386
      vertex 8.7 0 4.8
    endloop
  endfacet
  facet normal 0 0.07845909572784467 0.9969173337331279
    outer loop
      vertex 8.7 0 4.8
      vertex 13.7 0 4.8
      vertex 8.7 0.4380165021126464 4.765527353666386
    endloop
  endfacet
  facet normal 2.8329170356172077e-18 0.7604059656000316 0.6494480483301832
    outer loop
      vertex 8.7 1.9798989873223332 3.979898987322333
      vertex 13.7 2.2652475842498525 3.645798706418925
      vertex 8.7 2.2652475842498525 3.645798706418925
    endloop
  endfacet
  facet normal 2.8329170356172077e-18 0.6494480483301832 0.7604059656000316
    outer loop
      vertex 8.7 1.9798989873223332 3.979898987322333
      vertex 8.7 1.6457987064189248 4.2652475842498525
      vertex 13.7 1.6457987064189248 4.2652475842498525
    endloop
  endfacet
  facet normal 0 0.5224985647159492 0.8526401643540918
    outer loop
      vertex 8.7 1.271173399270731 4.49481826772743
      vertex 13.7 1.271173399270731 4.49481826772743
      vertex 8.7 1.6457987064189248 4.2652475842498525
    endloop
  endfacet
  facet normal 0 0.3826834323650881 0.9238795325112875
    outer loop
      vertex 8.7 0.8652475842498527 4.662958245626429
      vertex 13.7 0.8652475842498527 4.662958245626429
      vertex 8.7 1.271173399270731 4.49481826772743
    endloop
  endfacet
  facet normal 0 0.23344536385590722 0.9723699203976762
    outer loop
      vertex 8.7 0.4380165021126464 4.765527353666386
      vertex 13.7 0.4380165021126464 4.765527353666386
      vertex 8.7 0.8652475842498527 4.662958245626429
    endloop
  endfacet
  facet normal 0 -0.5224985647159492 -0.8526401643540918
    outer loop
      vertex 8.7 -1.6457987064189248 -0.2652475842498525
      vertex 13.7 -1.271173399270731 -0.49481826772743
      vertex 13.7 -1.6457987064189248 -0.2652475842498525
    endloop
  endfacet
  facet normal 0 -0.23344536385590625 -0.9723699203976764
    outer loop
      vertex 8.7 -0.8652475842498527 -0.6629582456264296
      vertex 13.7 -0.4380165021126464 -0.7655273536663856
      vertex 13.7 -0.8652475842498527 -0.6629582456264296
    endloop
  endfacet
  facet normal 0 -0.38268343236508895 -0.9238795325112871
    outer loop
      vertex 8.7 -1.271173399270731 -0.49481826772743
      vertex 13.7 -0.8652475842498527 -0.6629582456264296
      vertex 13.7 -1.271173399270731 -0.49481826772743
    endloop
  endfacet
  facet normal 0 -0.07845909572784467 -0.9969173337331279
    outer loop
      vertex 8.7 -0.4380165021126464 -0.7655273536663856
      vertex 13.7 0 -0.7999999999999998
      vertex 13.7 -0.4380165021126464 -0.7655273536663856
    endloop
  endfacet
  facet normal 0 0.07845909572784467 -0.9969173337331279
    outer loop
      vertex 8.7 0 -0.7999999999999998
      vertex 13.7 0.4380165021126464 -0.7655273536663856
      vertex 13.7 0 -0.7999999999999998
    endloop
  endfacet
  facet normal 0 -0.7604059656000316 -0.6494480483301832
    outer loop
      vertex 8.7 -1.9798989873223332 0.02010101267766684
      vertex 13.7 -1.9798989873223332 0.02010101267766684
      vertex 13.7 -2.2652475842498525 0.3542012935810752
    endloop
  endfacet
  facet normal 0 -0.6494480483301832 -0.7604059656000316
    outer loop
      vertex 8.7 -1.9798989873223332 0.02010101267766684
      vertex 13.7 -1.6457987064189248 -0.2652475842498525
      vertex 13.7 -1.9798989873223332 0.02010101267766684
    endloop
  endfacet
  facet normal 0 -0.8526401643540918 -0.5224985647159492
    outer loop
      vertex 8.7 -2.2652475842498525 0.3542012935810752
      vertex 13.7 -2.2652475842498525 0.3542012935810752
      vertex 13.7 -2.49481826772743 0.728826600729269
    endloop
  endfacet
  facet normal 0 0.23344536385590625 -0.9723699203976764
    outer loop
      vertex 8.7 0.4380165021126464 -0.7655273536663856
      vertex 13.7 0.8652475842498527 -0.6629582456264296
      vertex 13.7 0.4380165021126464 -0.7655273536663856
    endloop
  endfacet
  facet normal 0 0.38268343236508895 -0.9238795325112871
    outer loop
      vertex 8.7 0.8652475842498527 -0.6629582456264296
      vertex 13.7 1.271173399270731 -0.49481826772743
      vertex 13.7 0.8652475842498527 -0.6629582456264296
    endloop
  endfacet
  facet normal 0 0.5224985647159492 -0.8526401643540918
    outer loop
      vertex 8.7 1.271173399270731 -0.49481826772743
      vertex 13.7 1.6457987064189248 -0.2652475842498525
      vertex 13.7 1.271173399270731 -0.49481826772743
    endloop
  endfacet
  facet normal 0 0.6494480483301832 -0.7604059656000316
    outer loop
      vertex 8.7 1.6457987064189248 -0.2652475842498525
      vertex 13.7 1.9798989873223332 0.02010101267766684
      vertex 13.7 1.6457987064189248 -0.2652475842498525
    endloop
  endfacet
  facet normal 0 0.7604059656000316 -0.6494480483301832
    outer loop
      vertex 8.7 2.2652475842498525 0.3542012935810752
      vertex 13.7 2.2652475842498525 0.3542012935810752
      vertex 13.7 1.9798989873223332 0.02010101267766684
    endloop
  endfacet
  facet normal 0 -0.9238795325112871 -0.3826834323650889
    outer loop
      vertex 8.7 -2.49481826772743 0.728826600729269
      vertex 13.7 -2.49481826772743 0.728826600729269
      vertex 13.7 -2.6629582456264296 1.1347524157501474
    endloop
  endfacet
  facet normal 0 -0.9723699203976764 -0.23344536385590625
    outer loop
      vertex 8.7 -2.6629582456264296 1.1347524157501474
      vertex 13.7 -2.6629582456264296 1.1347524157501474
      vertex 13.7 -2.7655273536663856 1.5619834978873537
    endloop
  endfacet
  facet normal 1 0 0
    outer loop
      vertex 13.7 -1.6457987064189248 -0.2652475842498525
      vertex 13.7 -1.9798989873223332 3.979898987322333
      vertex 13.7 -1.9798989873223332 0.02010101267766684
    endloop
  endfacet
  facet normal 1 0 0
    outer loop
      vertex 13.7 -1.6457987064189248 -0.2652475842498525
      vertex 13.7 -1.271173399270731 -0.49481826772743
      vertex 13.7 -1.6457987064189248 4.2652475842498525
    endloop
  endfacet
  facet normal 1 0 0
    outer loop
      vertex 13.7 -1.271173399270731 -0.49481826772743
      vertex 13.7 -0.8652475842498527 -0.6629582456264296
      vertex 13.7 -1.271173399270731 4.49481826772743
    endloop
  endfacet
  facet normal 1 0 0
    outer loop
      vertex 13.7 -0.8652475842498527 -0.6629582456264296
      vertex 13.7 -0.4380165021126464 -0.7655273536663856
      vertex 13.7 -0.8652475842498527 4.662958245626429
    endloop
  endfacet
  facet normal 1 0 0
    outer loop
      vertex 13.7 -0.4380165021126464 -0.7655273536663856
      vertex 13.7 0 -0.7999999999999998
      vertex 13.7 -0.4380165021126464 4.765527353666386
    endloop
  endfacet
  facet normal 1 0 0
    outer loop
      vertex 13.7 0 -0.7999999999999998
      vertex 13.7 0.4380165021126464 -0.7655273536663856
      vertex 13.7 0 4.8
    endloop
  endfacet
  facet normal 0 -0.9969173337331279 -0.07845909572784468
    outer loop
      vertex 8.7 -2.7655273536663856 1.5619834978873537
      vertex 13.7 -2.7655273536663856 1.5619834978873537
      vertex 13.7 -2.8 2
    endloop
  endfacet
  facet normal 1 0 0
    outer loop
      vertex 13.7 -2.2652475842498525 0.3542012935810752
      vertex 13.7 -1.9798989873223332 0.02010101267766684
      vertex 13.7 -2.2652475842498525 3.645798706418925
    endloop
  endfacet
  facet normal 1 0 0
    outer loop
      vertex 13.7 -2.2652475842498525 0.3542012935810752
      vertex 13.7 -2.49481826772743 3.2711733992707313
      vertex 13.7 -2.49481826772743 0.728826600729269
    endloop
  endfacet
  facet normal 1 0 0
    outer loop
      vertex 13.7 -2.49481826772743 0.728826600729269
      vertex 13.7 -2.6629582456264296 2.8652475842498526
      vertex 13.7 -2.6629582456264296 1.1347524157501474
    endloop
  endfacet
  facet normal 1 0 0
    outer loop
      vertex 13.7 -2.6629582456264296 1.1347524157501474
      vertex 13.7 -2.7655273536663856 2.4380165021126463
      vertex 13.7 -2.7655273536663856 1.5619834978873537
    endloop
  endfacet
  facet normal 0 0.8526401643540918 -0.5224985647159492
    outer loop
      vertex 8.7 2.49481826772743 0.728826600729269
      vertex 13.7 2.49481826772743 0.728826600729269
      vertex 13.7 2.2652475842498525 0.3542012935810752
    endloop
  endfacet
  facet normal 0 0.9238795325112871 -0.3826834323650889
    outer loop
      vertex 8.7 2.6629582456264296 1.1347524157501474
      vertex 13.7 2.6629582456264296 1.1347524157501474
      vertex 13.7 2.49481826772743 0.728826600729269
    endloop
  endfacet
  facet normal 1 0 0
    outer loop
      vertex 13.7 0.4380165021126464 -0.7655273536663856
      vertex 13.7 0.8652475842498527 -0.6629582456264296
      vertex 13.7 0.4380165021126464 4.765527353666386
    endloop
  endfacet
  facet normal 1 0 0
    outer loop
      vertex 13.7 0.8652475842498527 -0.6629582456264296
      vertex 13.7 1.271173399270731 -0.49481826772743
      vertex 13.7 0.8652475842498527 4.662958245626429
    endloop
  endfacet
  facet normal 1 0 0
    outer loop
      vertex 13.7 1.271173399270731 -0.49481826772743
      vertex 13.7 1.6457987064189248 -0.2652475842498525
      vertex 13.7 1.271173399270731 4.49481826772743
    endloop
  endfacet
  facet normal 0 0.9723699203976764 -0.23344536385590625
    outer loop
      vertex 8.7 2.7655273536663856 1.5619834978873537
      vertex 13.7 2.7655273536663856 1.5619834978873537
      vertex 13.7 2.6629582456264296 1.1347524157501474
    endloop
  endfacet
  facet normal 0 0.9969173337331279 -0.07845909572784468
    outer loop
      vertex 8.7 2.8 2
      vertex 13.7 2.8 2
      vertex 13.7 2.7655273536663856 1.5619834978873537
    endloop
  endfacet
  facet normal 1 0 0
    outer loop
      vertex 13.7 1.6457987064189248 -0.2652475842498525
      vertex 13.7 1.9798989873223332 0.02010101267766684
      vertex 13.7 1.6457987064189248 4.2652475842498525
    endloop
  endfacet
  facet normal 1 0 0
    outer loop
      vertex 13.7 1.9798989873223332 0.02010101267766684
      vertex 13.7 2.2652475842498525 0.3542012935810752
      vertex 13.7 1.9798989873223332 3.979898987322333
    endloop
  endfacet
  facet normal 1 0 0
    outer loop
      vertex 13.7 2.2652475842498525 0.3542012935810752
      vertex 13.7 2.49481826772743 0.728826600729269
      vertex 13.7 2.2652475842498525 3.645798706418925
    endloop
  endfacet
  facet normal 1 0 0
    outer loop
      vertex 13.7 2.49481826772743 0.728826600729269
      vertex 13.7 2.6629582456264296 1.1347524157501474
      vertex 13.7 2.49481826772743 3.2711733992707313
    endloop
  endfacet
  facet normal 1 0 0
    outer loop
      vertex 13.7 2.6629582456264296 1.1347524157501474
      vertex 13.7 2.7655273536663856 1.5619834978873537
      vertex 13.7 2.6629582456264296 2.8652475842498526
    endloop
  endfacet
  facet normal 0 -0.9969173337331279 0.07845909572784468
    outer loop
      vertex 8.7 -2.8 2
      vertex 13.7 -2.8 2
      vertex 13.7 -2.7655273536663856 2.4380165021126463
    endloop
  endfacet
  facet normal 0 -0.9723699203976764 0.23344536385590625
    outer loop
      vertex 8.7 -2.7655273536663856 2.4380165021126463
      vertex 13.7 -2.7655273536663856 2.4380165021126463
      vertex 13.7 -2.6629582456264296 2.8652475842498526
    endloop
  endfacet
  facet normal 1 0 0
    outer loop
      vertex 13.7 -2.7655273536663856 1.5619834978873537
      vertex 13.7 -2.7655273536663856 2.4380165021126463
      vertex 13.7 -2.8 2
    endloop
  endfacet
  facet normal 1 0 0
    outer loop
      vertex 13.7 -2.6629582456264296 1.1347524157501474
      vertex 13.7 -2.6629582456264296 2.8652475842498526
      vertex 13.7 -2.7655273536663856 2.4380165021126463
    endloop
  endfacet
  facet normal 1 0 0
    outer loop
      vertex 13.7 -2.49481826772743 0.728826600729269
      vertex 13.7 -2.49481826772743 3.2711733992707313
      vertex 13.7 -2.6629582456264296 2.8652475842498526
    endloop
  endfacet
  facet normal 1 0 0
    outer loop
      vertex 13.7 -2.2652475842498525 0.3542012935810752
      vertex 13.7 -2.2652475842498525 3.645798706418925
      vertex 13.7 -2.49481826772743 3.2711733992707313
    endloop
  endfacet
  facet normal 1 0 0
    outer loop
      vertex 13.7 -1.9798989873223332 0.02010101267766684
      vertex 13.7 -1.9798989873223332 3.979898987322333
      vertex 13.7 -2.2652475842498525 3.645798706418925
    endloop
  endfacet
  facet normal 1 0 0
    outer loop
      vertex 13.7 -1.6457987064189248 -0.2652475842498525
      vertex 13.7 -1.6457987064189248 4.2652475842498525
      vertex 13.7 -1.9798989873223332 3.979898987322333
    endloop
  endfacet
  facet normal 0 -0.9238795325112872 0.3826834323650886
    outer loop
      vertex 8.7 -2.6629582456264296 2.8652475842498526
      vertex 13.7 -2.6629582456264296 2.8652475842498526
      vertex 13.7 -2.49481826772743 3.2711733992707313
    endloop
  endfacet
  facet normal 0 -0.852640164354092 0.5224985647159496
    outer loop
      vertex 8.7 -2.49481826772743 3.2711733992707313
      vertex 13.7 -2.49481826772743 3.2711733992707313
      vertex 13.7 -2.2652475842498525 3.645798706418925
    endloop
  endfacet
  facet normal 1 0 0
    outer loop
      vertex 13.7 -1.271173399270731 -0.49481826772743
      vertex 13.7 -1.271173399270731 4.49481826772743
      vertex 13.7 -1.6457987064189248 4.2652475842498525
    endloop
  endfacet
  facet normal 1 0 0
    outer loop
      vertex 13.7 -0.8652475842498527 -0.6629582456264296
      vertex 13.7 -0.8652475842498527 4.662958245626429
      vertex 13.7 -1.271173399270731 4.49481826772743
    endloop
  endfacet
  facet normal 1 0 0
    outer loop
      vertex 13.7 -0.4380165021126464 -0.7655273536663856
      vertex 13.7 -0.4380165021126464 4.765527353666386
      vertex 13.7 -0.8652475842498527 4.662958245626429
    endloop
  endfacet
  facet normal 1 0 0
    outer loop
      vertex 13.7 -0.4380165021126464 4.765527353666386
      vertex 13.7 0 -0.7999999999999998
      vertex 13.7 0 4.8
    endloop
  endfacet
  facet normal 0 0.9969173337331279 0.07845909572784468
    outer loop
      vertex 8.7 2.7655273536663856 2.4380165021126463
      vertex 13.7 2.7655273536663856 2.4380165021126463
      vertex 13.7 2.8 2
    endloop
  endfacet
  facet normal 1 0 0
    outer loop
      vertex 13.7 2.7655273536663856 1.5619834978873537
      vertex 13.7 2.8 2
      vertex 13.7 2.7655273536663856 2.4380165021126463
    endloop
  endfacet
  facet normal 1 0 0
    outer loop
      vertex 13.7 2.7655273536663856 1.5619834978873537
      vertex 13.7 2.7655273536663856 2.4380165021126463
      vertex 13.7 2.6629582456264296 2.8652475842498526
    endloop
  endfacet
  facet normal 1 0 0
    outer loop
      vertex 13.7 2.49481826772743 0.728826600729269
      vertex 13.7 2.49481826772743 3.2711733992707313
      vertex 13.7 2.2652475842498525 3.645798706418925
    endloop
  endfacet
  facet normal 1 0 0
    outer loop
      vertex 13.7 2.2652475842498525 0.3542012935810752
      vertex 13.7 2.2652475842498525 3.645798706418925
      vertex 13.7 1.9798989873223332 3.979898987322333
    endloop
  endfacet
  facet normal 1 0 0
    outer loop
      vertex 13.7 2.6629582456264296 1.1347524157501474
      vertex 13.7 2.6629582456264296 2.8652475842498526
      vertex 13.7 2.49481826772743 3.2711733992707313
    endloop
  endfacet
  facet normal 0 0.9723699203976764 0.23344536385590625
    outer loop
      vertex 8.7 2.6629582456264296 2.8652475842498526
      vertex 13.7 2.6629582456264296 2.8652475842498526
      vertex 13.7 2.7655273536663856 2.4380165021126463
    endloop
  endfacet
  facet normal 0 0.9238795325112872 0.3826834323650886
    outer loop
      vertex 8.7 2.49481826772743 3.2711733992707313
      vertex 13.7 2.49481826772743 3.2711733992707313
      vertex 13.7 2.6629582456264296 2.8652475842498526
    endloop
  endfacet
  facet normal 1 0 0
    outer loop
      vertex 13.7 0.4380165021126464 -0.7655273536663856
      vertex 13.7 0.4380165021126464 4.765527353666386
      vertex 13.7 0 4.8
    endloop
  endfacet
  facet normal 1 0 0
    outer loop
      vertex 13.7 0.8652475842498527 -0.6629582456264296
      vertex 13.7 0.8652475842498527 4.662958245626429
      vertex 13.7 0.4380165021126464 4.765527353666386
    endloop
  endfacet
  facet normal 1 0 0
    outer loop
      vertex 13.7 1.6457987064189248 -0.2652475842498525
      vertex 13.7 1.6457987064189248 4.2652475842498525
      vertex 13.7 1.271173399270731 4.49481826772743
    endloop
  endfacet
  facet normal 1 0 0
    outer loop
      vertex 13.7 1.271173399270731 -0.49481826772743
      vertex 13.7 1.271173399270731 4.49481826772743
      vertex 13.7 0.8652475842498527 4.662958245626429
    endloop
  endfacet
  facet normal 1 0 0
    outer loop
      vertex 13.7 1.9798989873223332 0.02010101267766684
      vertex 13.7 1.9798989873223332 3.979898987322333
      vertex 13.7 1.6457987064189248 4.2652475842498525
    endloop
  endfacet
  facet normal 0 -0.7604059656000316 0.6494480483301832
    outer loop
      vertex 8.7 -2.2652475842498525 3.645798706418925
      vertex 13.7 -2.2652475842498525 3.645798706418925
      vertex 13.7 -1.9798989873223332 3.979898987322333
    endloop
  endfacet
  facet normal 0 -0.6494480483301832 0.7604059656000316
    outer loop
      vertex 8.7 -1.6457987064189248 4.2652475842498525
      vertex 13.7 -1.9798989873223332 3.979898987322333
      vertex 13.7 -1.6457987064189248 4.2652475842498525
    endloop
  endfacet
  facet normal 0 -0.5224985647159492 0.8526401643540918
    outer loop
      vertex 8.7 -1.271173399270731 4.49481826772743
      vertex 13.7 -1.6457987064189248 4.2652475842498525
      vertex 13.7 -1.271173399270731 4.49481826772743
    endloop
  endfacet
  facet normal 0 -0.3826834323650881 0.9238795325112875
    outer loop
      vertex 8.7 -0.8652475842498527 4.662958245626429
      vertex 13.7 -1.271173399270731 4.49481826772743
      vertex 13.7 -0.8652475842498527 4.662958245626429
    endloop
  endfacet
  facet normal 0 -0.23344536385590722 0.9723699203976762
    outer loop
      vertex 8.7 -0.4380165021126464 4.765527353666386
      vertex 13.7 -0.8652475842498527 4.662958245626429
      vertex 13.7 -0.4380165021126464 4.765527353666386
    endloop
  endfacet
  facet normal 0 -0.07845909572784467 0.9969173337331279
    outer loop
      vertex 8.7 0 4.8
      vertex 13.7 -0.4380165021126464 4.765527353666386
      vertex 13.7 0 4.8
    endloop
  endfacet
  facet normal 0 0.852640164354092 0.5224985647159496
    outer loop
      vertex 8.7 2.2652475842498525 3.645798706418925
      vertex 13.7 2.2652475842498525 3.645798706418925
      vertex 13.7 2.49481826772743 3.2711733992707313
    endloop
  endfacet
  facet normal 0 0.7604059656000316 0.6494480483301832
    outer loop
      vertex 8.7 1.9798989873223332 3.979898987322333
      vertex 13.7 1.9798989873223332 3.979898987322333
      vertex 13.7 2.2652475842498525 3.645798706418925
    endloop
  endfacet
  facet normal 0 0.6494480483301832 0.7604059656000316
    outer loop
      vertex 8.7 1.9798989873223332 3.979898987322333
      vertex 13.7 1.6457987064189248 4.2652475842498525
      vertex 13.7 1.9798989873223332 3.979898987322333
    endloop
  endfacet
  facet normal 0 0.5224985647159492 0.8526401643540918
    outer loop
      vertex 8.7 1.6457987064189248 4.2652475842498525
      vertex 13.7 1.271173399270731 4.49481826772743
      vertex 13.7 1.6457987064189248 4.2652475842498525
    endloop
  endfacet
  facet normal 0 0.07845909572784467 0.9969173337331279
    outer loop
      vertex 8.7 0.4380165021126464 4.765527353666386
      vertex 13.7 0 4.8
      vertex 13.7 0.4380165021126464 4.765527353666386
    endloop
  endfacet
  facet normal 0 0.23344536385590722 0.9723699203976762
    outer loop
      vertex 8.7 0.8652475842498527 4.662958245626429
      vertex 13.7 0.4380165021126464 4.765527353666386
      vertex 13.7 0.8652475842498527 4.662958245626429
    endloop
  endfacet
  facet normal 0 0.3826834323650881 0.9238795325112875
    outer loop
      vertex 8.7 1.271173399270731 4.49481826772743
      vertex 13.7 0.8652475842498527 4.662958245626429
      vertex 13.7 1.271173399270731 4.49481826772743
    endloop
  endfacet
endsolid OpenSCAD_Model
